<svg id="圖層_1" data-name="圖層 1" xmlns="http://www.w3.org/2000/svg" xmlns:xlink="http://www.w3.org/1999/xlink" viewBox="0 0 280 252"><defs><style>.cls-1{fill:#1c232f;}.cls-2{fill:url(#未命名漸層_9);}.cls-3{fill:url(#未命名漸層_9-5);}.cls-4{fill:url(#未命名漸層_9-6);}.cls-5{fill:url(#未命名漸層_9-7);}.cls-6{fill:url(#未命名漸層_9-8);}.cls-7{fill:url(#未命名漸層_9-9);}.cls-8{fill:url(#未命名漸層_9-10);}.cls-9{fill:url(#未命名漸層_9-11);}.cls-10{fill:url(#未命名漸層_9-12);}.cls-11{fill:url(#未命名漸層_9-13);}.cls-12{fill:url(#未命名漸層_9-14);}.cls-13{fill:url(#未命名漸層_9-15);}.cls-14{fill:url(#未命名漸層_9-16);}.cls-15{fill:url(#未命名漸層_9-17);}.cls-16{fill:url(#未命名漸層_9-18);}.cls-17{fill:url(#未命名漸層_9-19);}.cls-18{fill:url(#未命名漸層_9-20);}.cls-19{fill:url(#未命名漸層_9-21);}.cls-20{fill:url(#未命名漸層_9-22);}.cls-21{fill:url(#未命名漸層_9-23);}.cls-22{fill:url(#未命名漸層_9-24);}.cls-23{fill:url(#未命名漸層_9-25);}.cls-24{fill:url(#未命名漸層_9-26);}.cls-25{fill:url(#未命名漸層_9-27);}</style><linearGradient id="未命名漸層_9" x1="71.35" y1="179.39" x2="204.62" y2="179.39" gradientUnits="userSpaceOnUse"><stop offset="0.41" stop-color="#ffffbc"/><stop offset="0.54" stop-color="#f7eca3"/><stop offset="0.73" stop-color="#edd685"/><stop offset="0.84" stop-color="#e9ce7a"/><stop offset="0.88" stop-color="#e7cb78"/><stop offset="0.92" stop-color="#e1c074"/><stop offset="0.96" stop-color="#d8af6c"/><stop offset="0.99" stop-color="#cb9761"/><stop offset="1" stop-color="#c58d5c"/></linearGradient><linearGradient id="未命名漸層_9-5" x1="97.36" y1="143.51" x2="140.16" y2="143.51" xlink:href="#未命名漸層_9"/><linearGradient id="未命名漸層_9-6" x1="139.47" y1="143.51" x2="182.27" y2="143.51" xlink:href="#未命名漸層_9"/><linearGradient id="未命名漸層_9-7" x1="-0.18" y1="205.48" x2="279.82" y2="205.48" xlink:href="#未命名漸層_9"/><linearGradient id="未命名漸層_9-8" x1="75.7" y1="212.88" x2="102.81" y2="212.88" xlink:href="#未命名漸層_9"/><linearGradient id="未命名漸層_9-9" x1="71.33" y1="218.22" x2="136.17" y2="218.22" xlink:href="#未命名漸層_9"/><linearGradient id="未命名漸層_9-10" x1="176.82" y1="212.88" x2="203.93" y2="212.88" xlink:href="#未命名漸層_9"/><linearGradient id="未命名漸層_9-11" x1="143.46" y1="218.22" x2="208.3" y2="218.22" xlink:href="#未命名漸層_9"/><linearGradient id="未命名漸層_9-12" x1="137.42" y1="239.25" x2="141.79" y2="239.25" xlink:href="#未命名漸層_9"/><linearGradient id="未命名漸層_9-13" x1="133.52" y1="233.94" x2="137.71" y2="233.94" xlink:href="#未命名漸層_9"/><linearGradient id="未命名漸層_9-14" x1="141.81" y1="234.4" x2="146.12" y2="234.4" xlink:href="#未命名漸層_9"/><linearGradient id="未命名漸層_9-15" x1="127.5" y1="75.04" x2="131.23" y2="75.04" xlink:href="#未命名漸層_9"/><linearGradient id="未命名漸層_9-16" x1="149.09" y1="75.04" x2="152.82" y2="75.04" xlink:href="#未命名漸層_9"/><linearGradient id="未命名漸層_9-17" x1="129.74" y1="38.36" x2="150.57" y2="38.36" xlink:href="#未命名漸層_9"/><linearGradient id="未命名漸層_9-18" x1="119.65" y1="61.56" x2="160.67" y2="61.56" xlink:href="#未命名漸層_9"/><linearGradient id="未命名漸層_9-19" x1="174.85" y1="71.04" x2="178.58" y2="71.04" xlink:href="#未命名漸層_9"/><linearGradient id="未命名漸層_9-20" x1="157.4" y1="42.34" x2="176.56" y2="42.34" xlink:href="#未命名漸層_9"/><linearGradient id="未命名漸層_9-21" x1="161.49" y1="64.62" x2="185.67" y2="64.62" xlink:href="#未命名漸層_9"/><linearGradient id="未命名漸層_9-22" x1="111.72" y1="97.34" x2="168.6" y2="97.34" xlink:href="#未命名漸層_9"/><linearGradient id="未命名漸層_9-23" x1="101.73" y1="71.04" x2="105.47" y2="71.04" xlink:href="#未命名漸層_9"/><linearGradient id="未命名漸層_9-24" x1="103.76" y1="42.34" x2="122.92" y2="42.34" xlink:href="#未命名漸層_9"/><linearGradient id="未命名漸層_9-25" x1="94.65" y1="64.62" x2="118.83" y2="64.62" xlink:href="#未命名漸層_9"/><linearGradient id="未命名漸層_9-26" x1="160.8" y1="97.34" x2="198.94" y2="97.34" xlink:href="#未命名漸層_9"/><linearGradient id="未命名漸層_9-27" x1="81.38" y1="97.34" x2="119.52" y2="97.34" xlink:href="#未命名漸層_9"/></defs><title>icon</title><path class="cls-1" d="M71.35,181.12a42.33,42.33,0,0,0,12.43-2.22,53.33,53.33,0,0,1-5.38-3.35A33.82,33.82,0,0,1,74,178.08L72.49,176c4-1.64,6.48-3.48,7.46-5.38l2.82.26-.41.69H93.68l1.87,1.84a22.76,22.76,0,0,1-6,5.47,45.57,45.57,0,0,0,11,2.15l-.32,2.79-3.89-.51a53.91,53.91,0,0,1-9.68-2.94,44.62,44.62,0,0,1-14.64,3.54ZM84.6,167v-2.22h2.69V167H98.46l2.34,1.17a25.83,25.83,0,0,1-1.46,6.42l-2.53-.86a17.72,17.72,0,0,0,1-3.85c0-.23-.13-.32-.35-.32H74.67a.23.23,0,0,0-.25.25v3.83H71.73v-6.14a.44.44,0,0,1,.5-.5ZM78.75,192.6v1.45H76.06v-9.86c0-.29.13-.45.44-.45H95.74c.38,0,.57.19.57.54v9.77H93.62V192.6Zm0-2.56H93.62v-3.36c0-.25-.13-.37-.41-.37H79.13c-.32,0-.41.15-.38.37Zm5.06-14,2.82,1.55a20.41,20.41,0,0,0,4.58-3.29h-10Z"/><path class="cls-1" d="M111.83,183.49a30,30,0,0,1-3.1,10.5l-2.66-1.67a22.49,22.49,0,0,0,3.1-12V167.58c0-.66.22-1,.76-1A128.88,128.88,0,0,0,131.19,165l.92,2.82a131.39,131.39,0,0,1-19.65,1.58c-.38,0-.5.16-.47.51v2.4h21c.6,0,.92.29.92.86v9.45a.82.82,0,0,1-.92.92Zm19.23-8.16c0-.16-.09-.25-.28-.25H112v5.59h18.82a.24.24,0,0,0,.28-.28Z"/><path class="cls-1" d="M144.28,177.89l-1,1.52-2.56-1.11A31.28,31.28,0,0,0,146,165.08l2.65.41a50.47,50.47,0,0,1-1.7,6.61v22h-2.69Zm4.39-8.16h21.16v2.69H148.67Zm4.12,22.62v1.45H150.1v-10c0-.26.12-.41.41-.41H168c.38,0,.57.18.57.5v9.9h-2.69v-1.45Zm-2-18.22h16.83v2.56H150.76Zm0,4.55h16.83v2.56H150.76Zm.25-13.09h16.48v2.56H151Zm1.78,24.2h13.12v-3.48c0-.23-.12-.35-.41-.35H153.13c-.25,0-.38.12-.34.35Z"/><path class="cls-1" d="M179.32,178.46l-1.27,2-2.56-1.11A32.94,32.94,0,0,0,181.28,165l2.66.45a55.31,55.31,0,0,1-1.93,7.37v21h-2.69Zm13.28,11.67v-9.8h-8.89v-2.69h8.89v-8.42l-7.08.32-.38-2.69c3.51,0,12.94-.5,17.81-1.61l.47,2.66c-1.2.25-3.89.66-8,1.13v8.61h9.2v2.69h-9.2v9.8h8.7v2.69H184.44v-2.69Z"/><path class="cls-2" d="M71.35,181.12a42.33,42.33,0,0,0,12.43-2.22,53.33,53.33,0,0,1-5.38-3.35A33.82,33.82,0,0,1,74,178.08L72.49,176c4-1.64,6.48-3.48,7.46-5.38l2.82.26-.41.69H93.68l1.87,1.84a22.76,22.76,0,0,1-6,5.47,45.57,45.57,0,0,0,11,2.15l-.32,2.79-3.89-.51a53.91,53.91,0,0,1-9.68-2.94,44.62,44.62,0,0,1-14.64,3.54ZM84.6,167v-2.22h2.69V167H98.46l2.34,1.17a25.83,25.83,0,0,1-1.46,6.42l-2.53-.86a17.72,17.72,0,0,0,1-3.85c0-.23-.13-.32-.35-.32H74.67a.23.23,0,0,0-.25.25v3.83H71.73v-6.14a.44.44,0,0,1,.5-.5ZM78.75,192.6v1.45H76.06v-9.86c0-.29.13-.45.44-.45H95.74c.38,0,.57.19.57.54v9.77H93.62V192.6Zm0-2.56H93.62v-3.36c0-.25-.13-.37-.41-.37H79.13c-.32,0-.41.15-.38.37Zm5.06-14,2.82,1.55a20.41,20.41,0,0,0,4.58-3.29h-10Z"/><path class="cls-2" d="M111.83,183.49a30,30,0,0,1-3.1,10.5l-2.66-1.67a22.49,22.49,0,0,0,3.1-12V167.58c0-.66.22-1,.76-1A128.88,128.88,0,0,0,131.19,165l.92,2.82a131.39,131.39,0,0,1-19.65,1.58c-.38,0-.5.16-.47.51v2.4h21c.6,0,.92.29.92.86v9.45a.82.82,0,0,1-.92.92Zm19.23-8.16c0-.16-.09-.25-.28-.25H112v5.59h18.82a.24.24,0,0,0,.28-.28Z"/><path class="cls-2" d="M144.28,177.89l-1,1.52-2.56-1.11A31.28,31.28,0,0,0,146,165.08l2.65.41a50.47,50.47,0,0,1-1.7,6.61v22h-2.69Zm4.39-8.16h21.16v2.69H148.67Zm4.12,22.62v1.45H150.1v-10c0-.26.12-.41.41-.41H168c.38,0,.57.18.57.5v9.9h-2.69v-1.45Zm-2-18.22h16.83v2.56H150.76Zm0,4.55h16.83v2.56H150.76Zm.25-13.09h16.48v2.56H151Zm1.78,24.2h13.12v-3.48c0-.23-.12-.35-.41-.35H153.13c-.25,0-.38.12-.34.35Z"/><path class="cls-2" d="M179.32,178.46l-1.27,2-2.56-1.11A32.94,32.94,0,0,0,181.28,165l2.66.45a55.31,55.31,0,0,1-1.93,7.37v21h-2.69Zm13.28,11.67v-9.8h-8.89v-2.69h8.89v-8.42l-7.08.32-.38-2.69c3.51,0,12.94-.5,17.81-1.61l.47,2.66c-1.2.25-3.89.66-8,1.13v8.61h9.2v2.69h-9.2v9.8h8.7v2.69H184.44v-2.69Z"/><path class="cls-3" d="M108.4,149.71a5.92,5.92,0,0,1-4,3.09,6.07,6.07,0,0,1-5.1-.71,4.36,4.36,0,0,1-1.58-2.18l-.22-.64c0-.22-.07-.45-.1-.68l0-.34,0-.34c0-.23,0-.46.07-.69a5.16,5.16,0,0,1,1.29-2.4,9.07,9.07,0,0,1,2.13-1.63,18.14,18.14,0,0,1,10.22-2,46.32,46.32,0,0,1,10.14,2.29c1.64.53,3.27,1.05,4.91,1.5a16.37,16.37,0,0,0,5,.61,13.33,13.33,0,0,0,4.86-1,5.56,5.56,0,0,0,3.23-3.33,9.43,9.43,0,0,0,.22-1.18c0-.41,0-.82,0-1.23a4.35,4.35,0,0,0-.89-2.19,5.72,5.72,0,0,0-4.19-2.26,4.17,4.17,0,0,0-4,2.39,3.45,3.45,0,0,0-.42,2.41,2.65,2.65,0,0,0,1.61,1.84,2.73,2.73,0,0,1-1.76-1.8,3.64,3.64,0,0,1,.33-2.57,5.24,5.24,0,0,1,1.69-2,4.11,4.11,0,0,1,2.56-.74,6.24,6.24,0,0,1,4.67,2.36,5,5,0,0,1,1.09,2.5c0,.45.05.9.06,1.35a12.25,12.25,0,0,1-.22,1.35,6.17,6.17,0,0,1-3.62,3.91,14.14,14.14,0,0,1-5.18,1.09,16.83,16.83,0,0,1-5.24-.6c-1.68-.43-3.33-.95-5-1.46a44.34,44.34,0,0,0-9.91-2.34,19.22,19.22,0,0,0-5,.18,16.77,16.77,0,0,0-4.75,1.56,8.71,8.71,0,0,0-2,1.44,4.55,4.55,0,0,0-1.17,2,3.81,3.81,0,0,0-.07.59l0,.3,0,.3c0,.2,0,.4.08.6l.18.58a4,4,0,0,0,1.34,2,5.77,5.77,0,0,0,4.75.85,6.58,6.58,0,0,0,2.33-1A5.13,5.13,0,0,0,108.4,149.71Z"/><path class="cls-4" d="M171.23,149.71a5.07,5.07,0,0,0,1.73,1.86,6.61,6.61,0,0,0,2.32,1,5.77,5.77,0,0,0,4.75-.85,3.89,3.89,0,0,0,1.34-2l.18-.58c0-.2,0-.4.08-.6l0-.3,0-.3a5.6,5.6,0,0,0-.07-.59,4.57,4.57,0,0,0-1.18-2,8.65,8.65,0,0,0-2-1.44,16.84,16.84,0,0,0-4.76-1.56,19.22,19.22,0,0,0-5-.18,44.34,44.34,0,0,0-9.91,2.34c-1.64.51-3.29,1-5,1.46a16.9,16.9,0,0,1-5.24.6,14.15,14.15,0,0,1-5.19-1.09,6.17,6.17,0,0,1-3.62-3.91,12.25,12.25,0,0,1-.22-1.35c0-.45,0-.9.06-1.35a5.14,5.14,0,0,1,1.09-2.5,6.24,6.24,0,0,1,4.67-2.36,4.09,4.09,0,0,1,2.56.74,5.27,5.27,0,0,1,1.7,2,3.64,3.64,0,0,1,.32,2.57,2.73,2.73,0,0,1-1.76,1.8,2.63,2.63,0,0,0,1.61-1.84,3.45,3.45,0,0,0-.41-2.41,4.19,4.19,0,0,0-4-2.39,5.74,5.74,0,0,0-4.19,2.26,4.44,4.44,0,0,0-.89,2.19c0,.41,0,.82,0,1.23a9.46,9.46,0,0,0,.23,1.18,5.51,5.51,0,0,0,3.23,3.33,13.23,13.23,0,0,0,4.85,1,16.33,16.33,0,0,0,5-.61c1.64-.45,3.27-1,4.91-1.5a46.32,46.32,0,0,1,10.14-2.29,18.16,18.16,0,0,1,10.23,2,9.5,9.5,0,0,1,2.13,1.63,5.14,5.14,0,0,1,1.28,2.4,5.38,5.38,0,0,1,.07.69l0,.34-.05.34c0,.23-.06.46-.1.68l-.22.64a4.4,4.4,0,0,1-1.57,2.18,6.09,6.09,0,0,1-5.11.71A5.92,5.92,0,0,1,171.23,149.71Z"/><polygon class="cls-5" points="-0.18 205.47 34.82 205.12 69.82 204.91 139.82 204.74 209.82 204.91 244.82 205.11 279.82 205.47 244.82 205.84 209.82 206.04 139.82 206.22 69.82 206.04 34.82 205.84 -0.18 205.47"/><path class="cls-6" d="M102.81,210.8l-1.08.15c-.69.1-1.69.27-2.92.5-2.46.45-5.82,1.25-9.53,1.9-.93.18-1.84.3-2.72.44s-1.71.21-2.53.26c-1.62.08-3.1.07-4.33,0L78,213.94l-1.26-.16-1.07-.17,1,.34,1.24.33c.49.1,1,.22,1.67.32a30.23,30.23,0,0,0,4.42.37,19.93,19.93,0,0,0,2.63-.14c.9-.11,1.83-.22,2.78-.4A79.15,79.15,0,0,0,98.94,212Z"/><path class="cls-7" d="M135.67,225a8.22,8.22,0,0,1-1.07,2.09,9.61,9.61,0,0,1-1.38,1.55,10.43,10.43,0,0,1-1.54,1.12l-.4.23-.21.11-.22.1-.44.19-.22.09-.22.07a9,9,0,0,1-1.8.41,12,12,0,0,1-1.79.1,14.19,14.19,0,0,1-3.41-.52,13.92,13.92,0,0,1-1.57-.56l-.75-.33-.36-.19-.35-.2-.35-.2-.34-.22-.17-.11-.16-.11-.32-.24-.31-.25-.15-.12-.15-.13-.29-.26-.27-.28-.26-.28c-.09-.1-.18-.19-.26-.29s-.32-.4-.46-.62a8.37,8.37,0,0,1-.74-1.3c0-.11-.09-.23-.14-.34l-.06-.17-.06-.18-.11-.34c0-.12-.06-.24-.08-.36l0-.17a1.13,1.13,0,0,1,0-.18l0-.35c0-.12,0-.24,0-.36v-.35c0-.11,0-.23,0-.34l0-.34,0-.17,0-.17.06-.33c0-.11.06-.21.08-.32s0-.11,0-.16l.05-.15c0-.11.07-.21.11-.31s.09-.19.13-.29a.61.61,0,0,1,.07-.14l.07-.14.15-.27a2.33,2.33,0,0,1,.17-.26l.08-.13.09-.12.18-.24.19-.22a5.29,5.29,0,0,1,.41-.41,5.74,5.74,0,0,1,1.79-1.12,5.29,5.29,0,0,1,1.8-.36,5.06,5.06,0,0,1,1.52.19l.16,0,.15.06.29.11.51.24.4.25.13.1a2.09,2.09,0,1,1-1.07,0l-.15-.05-.27-.06-.14,0-.15,0a4.83,4.83,0,0,0-4.26,1.42,3.73,3.73,0,0,0-.32.36l-.15.19-.14.2a.36.36,0,0,1-.07.1l-.06.11-.12.22-.12.23,0,.12-.05.12-.09.24-.08.25,0,.13,0,.13-.06.26,0,.27,0,.13v.14l0,.28V222a.76.76,0,0,0,0,.15v.14l0,.28a2.74,2.74,0,0,1,0,.28l0,.14,0,.15c0,.09,0,.18.08.28s.06.19.1.28l0,.14.06.14.12.28a8.74,8.74,0,0,0,3.74,3.68l.32.17.32.16.67.29c.46.18.93.33,1.41.47a12.16,12.16,0,0,0,3,.42,10,10,0,0,0,1.55-.09,7.9,7.9,0,0,0,1.51-.36l.18-.06.18-.07a3.68,3.68,0,0,0,.35-.15l.17-.09a.56.56,0,0,0,.17-.09l.35-.19a8.51,8.51,0,0,0,1.29-.94,7.89,7.89,0,0,0,1.14-1.27,7,7,0,0,0,.88-1.7,8.15,8.15,0,0,0,.42-2.1c0-.19,0-.38,0-.58s0-.39,0-.58a10.4,10.4,0,0,0-.18-1.21,11,11,0,0,0-.34-1.21,10.75,10.75,0,0,0-.52-1.21,11.47,11.47,0,0,0-.68-1.17c-.14-.19-.26-.39-.41-.57l-.22-.27-.23-.27a3,3,0,0,0-.24-.26l-.25-.26c-.17-.17-.35-.35-.54-.52a3.31,3.31,0,0,0-.27-.26l-.28-.25-.29-.25a3.36,3.36,0,0,0-.29-.24l-.6-.48-.63-.45c-.21-.16-.43-.29-.65-.43l-.33-.21-.34-.19-.35-.19a3.84,3.84,0,0,0-.35-.18l-.72-.35-.75-.3a2.46,2.46,0,0,0-.38-.14l-.38-.14a27.78,27.78,0,0,0-3.23-.84l-.84-.16-.42-.07-.43-.07-.85-.12-.87-.11-.86-.11-.88-.09-.86-.08-.44,0-.43,0-.88,0h-.88c-.58,0-1.17,0-1.76,0l-.88,0c-.29,0-.59,0-.88.06-.59.05-1.18.1-1.76.17-1.17.13-2.34.31-3.5.49s-2.32.39-3.46.61l-3.41.65-3.34.63c-2.19.41-4.33.84-6.39,1.15-1,.16-2,.28-3,.37s-2,.12-2.91.11a20.14,20.14,0,0,1-5.22-.71,11.4,11.4,0,0,1-2.17-.85,5.42,5.42,0,0,1-1.67-1.28,3.33,3.33,0,0,1-.51-.81,2.81,2.81,0,0,1-.23-.87c0-.07,0-.14,0-.21a1.47,1.47,0,0,1,0-.21,2.6,2.6,0,0,1,0-.4,3,3,0,0,1,.22-.71,2.6,2.6,0,0,1,.73-1,1.47,1.47,0,0,1,.83-.35,1.2,1.2,0,0,1,.56.08l.13.06,0,0s-.07,0-.19,0a1.38,1.38,0,0,0-.53,0,1.41,1.41,0,0,0-.76.37,2.62,2.62,0,0,0-.65,1,2.74,2.74,0,0,0-.17.67,1.51,1.51,0,0,0,0,.37,1.34,1.34,0,0,0,0,.2l0,.19a3,3,0,0,0,.23.79,3.51,3.51,0,0,0,.5.73,5.17,5.17,0,0,0,1.61,1.16,11.49,11.49,0,0,0,2.12.76,20,20,0,0,0,5.11.57c.92,0,1.88-.07,2.85-.18s2-.25,3-.43c2-.35,4.15-.82,6.34-1.28l3.32-.69c1.12-.24,2.26-.49,3.4-.72s2.31-.47,3.48-.68,2.35-.41,3.54-.56c.59-.08,1.19-.14,1.79-.2.3,0,.6-.06.9-.08s.6-.06.9-.07c.61,0,1.21-.07,1.81-.07h.91l.91,0h.45l.45,0,.9.06.89.09c.29,0,.59,0,.88.09l.88.1.88.11.44.06.44.07.87.15a26.52,26.52,0,0,1,3.41.84l.41.14.41.14.81.32.79.36.38.19.38.2c.12.07.25.13.37.21l.37.22c.24.15.48.29.71.45l.68.48.65.51c.12.08.22.17.32.25l.31.27.31.26.29.27.58.54.28.29.28.3.26.3c.09.1.17.21.25.31s.32.42.47.63a12.34,12.34,0,0,1,.8,1.33,13.84,13.84,0,0,1,.61,1.38,12.48,12.48,0,0,1,.41,1.41A9.73,9.73,0,0,1,135.67,225Z"/><path class="cls-8" d="M176.82,210.8l1.08.15c.69.1,1.69.27,2.92.5,2.46.45,5.82,1.25,9.54,1.9.92.18,1.83.3,2.71.44s1.71.21,2.53.26c1.62.08,3.1.07,4.34,0l1.67-.12,1.25-.16,1.07-.17-1,.34-1.24.33c-.49.1-1,.22-1.67.32a30.21,30.21,0,0,1-4.41.37,20,20,0,0,1-2.64-.14c-.9-.11-1.83-.22-2.77-.4a78.87,78.87,0,0,1-9.48-2.45Z"/><path class="cls-9" d="M144,225a8.56,8.56,0,0,0,1.07,2.09,9.2,9.2,0,0,0,1.39,1.55,10.34,10.34,0,0,0,1.53,1.12l.41.23.21.11.21.1.44.19.22.09.22.07a8.92,8.92,0,0,0,1.81.41,12,12,0,0,0,1.79.1,14.11,14.11,0,0,0,3.4-.52,13.25,13.25,0,0,0,1.57-.56c.26-.1.5-.22.75-.33l.36-.19.36-.2.34-.2.34-.22.17-.11.16-.11.32-.24.31-.25.15-.12.15-.13.29-.26.27-.28c.1-.09.18-.19.27-.28l.25-.29c.16-.21.32-.4.46-.62a8.37,8.37,0,0,0,.74-1.3c.05-.11.09-.23.14-.34l.07-.17.05-.18c0-.11.08-.23.11-.34l.09-.36,0-.17,0-.18.05-.35c0-.12,0-.24,0-.36v-.69c0-.12,0-.23,0-.34v-.17l0-.17c0-.11,0-.22-.07-.33s0-.21-.08-.32a.94.94,0,0,1,0-.16l-.06-.15a2.83,2.83,0,0,0-.11-.31l-.13-.29-.06-.14-.08-.14-.15-.27-.16-.26-.09-.13a.94.94,0,0,0-.09-.12l-.18-.24L163,218a5.29,5.29,0,0,0-.41-.41,5.74,5.74,0,0,0-1.79-1.12,5.29,5.29,0,0,0-1.8-.36,5,5,0,0,0-1.51.19l-.17,0-.15.06-.29.11-.5.24-.41.25-.13.1a2.1,2.1,0,1,0,1.07,0L157,217l.27-.06.15,0,.14,0a4.65,4.65,0,0,1,2.82.39,4.67,4.67,0,0,1,1.44,1,3.73,3.73,0,0,1,.32.36l.15.19.14.2a.86.86,0,0,0,.07.1l.06.11.13.22.11.23.05.12,0,.12.1.24.07.25,0,.13,0,.13.06.26,0,.27v.27l0,.28v.42l0,.14,0,.28-.05.28,0,.14,0,.15-.07.28-.1.28,0,.14-.07.14-.12.28A8.69,8.69,0,0,1,159,228l-.32.17-.32.16-.67.29c-.45.18-.93.33-1.41.47a12.16,12.16,0,0,1-3,.42,10,10,0,0,1-1.55-.09,7.63,7.63,0,0,1-1.5-.36L150,229l-.17-.07-.36-.15-.17-.09a.7.7,0,0,1-.17-.09l-.35-.19a9,9,0,0,1-1.29-.94,7.85,7.85,0,0,1-1.13-1.27,6.65,6.65,0,0,1-.88-1.7,7.39,7.39,0,0,1-.42-2.1c0-.19,0-.38,0-.58s0-.39,0-.58a8.59,8.59,0,0,1,.17-1.21,9.19,9.19,0,0,1,.35-1.21,10.68,10.68,0,0,1,.51-1.21,10,10,0,0,1,.69-1.17c.13-.19.26-.39.4-.57l.22-.27.23-.27.24-.26.25-.26.54-.52.27-.26.29-.25.28-.25c.1-.08.19-.17.29-.24l.6-.48.63-.45c.21-.16.43-.29.65-.43l.33-.21c.11-.07.23-.12.35-.19l.34-.19c.12-.06.23-.13.35-.18l.72-.35.75-.3a2.46,2.46,0,0,1,.38-.14l.39-.14a27.1,27.1,0,0,1,3.22-.84l.84-.16.42-.07.43-.07.85-.12.87-.11.87-.11.87-.09.87-.08.43,0,.44,0,.87,0h.88c.58,0,1.17,0,1.76,0l.88,0c.3,0,.59,0,.88.06.59.05,1.18.1,1.76.17,1.18.13,2.34.31,3.51.49s2.31.39,3.46.61l3.4.65,3.34.63c2.19.41,4.33.84,6.4,1.15,1,.16,2.05.28,3,.37s2,.12,2.91.11a20.28,20.28,0,0,0,5.23-.71,11.3,11.3,0,0,0,2.16-.85,5.42,5.42,0,0,0,1.67-1.28,3.71,3.71,0,0,0,.52-.81,3.5,3.5,0,0,0,.23-.87v-.21a1.47,1.47,0,0,0,0-.21,2.6,2.6,0,0,0,0-.4,3,3,0,0,0-.21-.71,2.62,2.62,0,0,0-.74-1,1.44,1.44,0,0,0-.83-.35,1.13,1.13,0,0,0-.55.08.4.4,0,0,0-.13.06l0,0a1.35,1.35,0,0,0,.18,0,1.37,1.37,0,0,1,1.29.34,2.51,2.51,0,0,1,.65,1,3.28,3.28,0,0,1,.18.67,2.26,2.26,0,0,1,0,.37v.2l0,.19a3.4,3.4,0,0,1-.24.79,2.88,2.88,0,0,1-.5.73,5.17,5.17,0,0,1-1.61,1.16,11.38,11.38,0,0,1-2.11.76,20.08,20.08,0,0,1-5.12.57c-.92,0-1.87-.07-2.85-.18s-2-.25-3-.43c-2-.35-4.15-.82-6.34-1.28l-3.32-.69c-1.12-.24-2.25-.49-3.4-.72s-2.3-.47-3.47-.68-2.35-.41-3.55-.56c-.59-.08-1.19-.14-1.79-.2-.3,0-.6-.06-.9-.08s-.6-.06-.9-.07c-.6,0-1.21-.07-1.81-.07h-.91l-.9,0h-.45l-.46,0-.9.06-.88.09c-.3,0-.59,0-.89.09l-.88.1-.88.11-.44.06-.43.07-.87.15a26.11,26.11,0,0,0-3.41.84l-.42.14-.41.14-.81.32-.78.36-.39.19-.38.2c-.12.07-.25.13-.37.21l-.36.22c-.25.15-.49.29-.72.45l-.68.48-.65.51-.32.25-.31.27-.3.26-.3.27-.57.54-.29.29c-.09.1-.19.2-.27.3l-.27.3c-.09.1-.17.21-.25.31s-.32.42-.47.63a14.2,14.2,0,0,0-.8,1.33,13.84,13.84,0,0,0-.61,1.38,10.64,10.64,0,0,0-.4,1.41A9.73,9.73,0,0,0,144,225Z"/><path class="cls-10" d="M139.88,248.37c.41-.92.66-1.47.89-2a13.37,13.37,0,0,0,.17-9.82c-.69-2-.74-4.24-1.32-6.39-.33,2-.65,3.9-1,5.85a8.14,8.14,0,0,1-.51,2.42c-1.71,3.11.26,5.84.8,8.71C139,247.42,139.34,247.68,139.88,248.37Z"/><path class="cls-11" d="M134.05,240.56a19.08,19.08,0,0,0,3.54-13.23,15.5,15.5,0,0,1-3.59,9.72c-.63.74-.34,2.27-.48,3.44Z"/><path class="cls-12" d="M141.81,228.25a20.17,20.17,0,0,0,3.79,12.29l.52-.08c-.15-1.17.08-2.65-.55-3.44a15.27,15.27,0,0,1-3.38-8.12C142.18,228.73,142,228.58,141.81,228.25Z"/><path class="cls-13" d="M129.36,86.23a1.86,1.86,0,0,1-1.86-1.87V65.71a1.87,1.87,0,0,1,3.73,0V84.36A1.86,1.86,0,0,1,129.36,86.23Z"/><path class="cls-14" d="M151,86.23a1.86,1.86,0,0,1-1.86-1.87V65.71a1.87,1.87,0,0,1,3.73,0V84.36A1.86,1.86,0,0,1,151,86.23Z"/><path class="cls-15" d="M140.16,48.78a10.42,10.42,0,1,1,10.41-10.42A10.43,10.43,0,0,1,140.16,48.78Zm0-17.09a6.68,6.68,0,1,0,6.68,6.67A6.68,6.68,0,0,0,140.16,31.69Z"/><path class="cls-16" d="M158.8,72a1.87,1.87,0,0,1-1.87-1.87V63.15a8.25,8.25,0,0,0-8.23-8.24H131.62a8.25,8.25,0,0,0-8.24,8.24v6.93a1.87,1.87,0,1,1-3.73,0V63.15a12,12,0,0,1,12-12H148.7a12,12,0,0,1,12,12v6.93A1.87,1.87,0,0,1,158.8,72Z"/><path class="cls-17" d="M176.71,76.94a1.87,1.87,0,0,1-1.86-1.87V67a1.87,1.87,0,0,1,3.73,0v8.06A1.87,1.87,0,0,1,176.71,76.94Z"/><path class="cls-18" d="M167,51.92a9.58,9.58,0,1,1,9.58-9.58A9.59,9.59,0,0,1,167,51.92Zm0-15.42a5.84,5.84,0,1,0,5.84,5.84A5.85,5.85,0,0,0,167,36.5Z"/><path class="cls-19" d="M183.8,75.52a1.87,1.87,0,0,1-1.87-1.87v-9a7.26,7.26,0,0,0-7.25-7.25H163.36a1.87,1.87,0,0,1,0-3.74h11.32a11,11,0,0,1,11,11v9A1.87,1.87,0,0,1,183.8,75.52Z"/><path class="cls-20" d="M152.4,124.81a8.56,8.56,0,0,1-5.06-1.68L143,120a4.89,4.89,0,0,0-5.74,0L133,123.13a8.62,8.62,0,0,1-13.26-9.63l1.65-5.06A4.89,4.89,0,0,0,119.6,103l-4.31-3.13a8.62,8.62,0,0,1,5.06-15.59h5.33a4.87,4.87,0,0,0,4.64-3.37L132,75.82a8.62,8.62,0,0,1,16.39,0L150,80.89a4.87,4.87,0,0,0,4.64,3.37H160A8.62,8.62,0,0,1,165,99.85L160.72,103a4.87,4.87,0,0,0-1.77,5.46l1.65,5.06a8.5,8.5,0,0,1-3.13,9.63A8.61,8.61,0,0,1,152.4,124.81Zm-12.24-9.48a8.59,8.59,0,0,1,5.06,1.65l4.31,3.13a4.88,4.88,0,0,0,7.51-5.46l-1.65-5.06a8.61,8.61,0,0,1,3.13-9.63l4.31-3.13A4.88,4.88,0,0,0,160,88h-5.33a8.61,8.61,0,0,1-8.2-6L144.8,77a4.88,4.88,0,0,0-9.28,0l-1.65,5.07a8.58,8.58,0,0,1-8.19,6h-5.33a4.88,4.88,0,0,0-2.87,8.83l4.31,3.13a8.58,8.58,0,0,1,3.13,9.63l-1.64,5.06a4.88,4.88,0,0,0,7.51,5.46l4.3-3.13A8.62,8.62,0,0,1,140.16,115.33Z"/><path class="cls-21" d="M103.6,76.94a1.87,1.87,0,0,1-1.87-1.87V67a1.87,1.87,0,0,1,3.74,0v8.06A1.87,1.87,0,0,1,103.6,76.94Z"/><path class="cls-22" d="M113.34,51.92a9.58,9.58,0,1,1,9.58-9.58A9.59,9.59,0,0,1,113.34,51.92Zm0-15.42a5.84,5.84,0,1,0,5.84,5.84A5.85,5.85,0,0,0,113.34,36.5Z"/><path class="cls-23" d="M96.52,75.52a1.87,1.87,0,0,1-1.87-1.87v-9a11,11,0,0,1,11-11H117a1.87,1.87,0,1,1,0,3.74H105.64a7.26,7.26,0,0,0-7.25,7.25v9A1.87,1.87,0,0,1,96.52,75.52Z"/><path class="cls-24" d="M182.74,124.81a8.61,8.61,0,0,1-5.07-1.68l-4.3-3.13a4.89,4.89,0,0,0-5.74,0l-2.11,1.54a1.87,1.87,0,0,1-2.2-3l2.11-1.53a8.6,8.6,0,0,1,10.13,0l4.31,3.13a4.88,4.88,0,0,0,7.51-5.46l-1.65-5.06a8.6,8.6,0,0,1,3.13-9.63l4.31-3.13A4.88,4.88,0,0,0,190.3,88H185a8.6,8.6,0,0,1-8.2-6L175.14,77a4.88,4.88,0,0,0-9.28,0l-1.41,4.33a1.87,1.87,0,0,1-3.56-1.15l1.41-4.34a8.62,8.62,0,0,1,16.39,0l1.65,5.07A4.86,4.86,0,0,0,185,84.26h5.32a8.62,8.62,0,0,1,5.07,15.59L191.06,103a4.86,4.86,0,0,0-1.77,5.46l1.64,5.06a8.47,8.47,0,0,1-3.13,9.63A8.56,8.56,0,0,1,182.74,124.81Z"/><path class="cls-25" d="M97.58,124.81a8.61,8.61,0,0,1-5.07-1.68,8.5,8.5,0,0,1-3.13-9.63L91,108.44A4.87,4.87,0,0,0,89.26,103L85,99.85A8.62,8.62,0,0,1,90,84.26h5.33A4.87,4.87,0,0,0,100,80.89l1.65-5.07a8.62,8.62,0,0,1,16.39,0l1.4,4.34a1.87,1.87,0,1,1-3.55,1.15L114.46,77a4.88,4.88,0,0,0-9.28,0l-1.65,5.07a8.58,8.58,0,0,1-8.19,6H90a4.88,4.88,0,0,0-2.86,8.83l4.3,3.13a8.58,8.58,0,0,1,3.13,9.63l-1.64,5.06a4.88,4.88,0,0,0,7.51,5.46l4.31-3.13a8.6,8.6,0,0,1,10.13,0l2.1,1.53a1.87,1.87,0,1,1-2.19,3L112.69,120a4.89,4.89,0,0,0-5.74,0l-4.31,3.13A8.56,8.56,0,0,1,97.58,124.81Z"/></svg>