<svg id="圖層_1" data-name="圖層 1" xmlns="http://www.w3.org/2000/svg" xmlns:xlink="http://www.w3.org/1999/xlink" viewBox="0 0 280 252"><defs><style>.cls-1{fill:#1c232f;}.cls-2{fill:url(#未命名漸層_9);}.cls-3{fill:url(#未命名漸層_9-5);}.cls-4{fill:url(#未命名漸層_9-6);}.cls-5{fill:url(#未命名漸層_9-7);}.cls-6{fill:url(#未命名漸層_9-8);}.cls-7{fill:url(#未命名漸層_9-9);}.cls-8{fill:url(#未命名漸層_9-10);}.cls-9{fill:url(#未命名漸層_9-11);}.cls-10{fill:url(#未命名漸層_9-12);}.cls-11{fill:url(#未命名漸層_9-13);}.cls-12{fill:url(#未命名漸層_9-14);}.cls-13{fill:url(#未命名漸層_9-15);}.cls-14{fill:url(#未命名漸層_9-16);}.cls-15{fill:url(#未命名漸層_9-17);}.cls-16{fill:url(#未命名漸層_9-18);}.cls-17{fill:url(#未命名漸層_9-19);}</style><linearGradient id="未命名漸層_9" x1="71.27" y1="179.46" x2="204.89" y2="179.46" gradientUnits="userSpaceOnUse"><stop offset="0.41" stop-color="#ffffbc"/><stop offset="0.54" stop-color="#f7eca3"/><stop offset="0.73" stop-color="#edd685"/><stop offset="0.84" stop-color="#e9ce7a"/><stop offset="0.88" stop-color="#e7cb78"/><stop offset="0.92" stop-color="#e1c074"/><stop offset="0.96" stop-color="#d8af6c"/><stop offset="0.99" stop-color="#cb9761"/><stop offset="1" stop-color="#c58d5c"/></linearGradient><linearGradient id="未命名漸層_9-5" x1="97.16" y1="143.51" x2="139.95" y2="143.51" xlink:href="#未命名漸層_9"/><linearGradient id="未命名漸層_9-6" x1="139.27" y1="143.51" x2="182.06" y2="143.51" xlink:href="#未命名漸層_9"/><linearGradient id="未命名漸層_9-7" x1="-0.39" y1="205.48" x2="279.61" y2="205.48" xlink:href="#未命名漸層_9"/><linearGradient id="未命名漸層_9-8" x1="75.49" y1="212.88" x2="102.6" y2="212.88" xlink:href="#未命名漸層_9"/><linearGradient id="未命名漸層_9-9" x1="71.12" y1="218.22" x2="135.97" y2="218.22" xlink:href="#未命名漸層_9"/><linearGradient id="未命名漸層_9-10" x1="176.61" y1="212.88" x2="203.73" y2="212.88" xlink:href="#未命名漸層_9"/><linearGradient id="未命名漸層_9-11" x1="143.25" y1="218.22" x2="208.1" y2="218.22" xlink:href="#未命名漸層_9"/><linearGradient id="未命名漸層_9-12" x1="137.22" y1="239.25" x2="141.58" y2="239.25" xlink:href="#未命名漸層_9"/><linearGradient id="未命名漸層_9-13" x1="133.31" y1="233.94" x2="137.5" y2="233.94" xlink:href="#未命名漸層_9"/><linearGradient id="未命名漸層_9-14" x1="141.6" y1="234.4" x2="145.92" y2="234.4" xlink:href="#未命名漸層_9"/><linearGradient id="未命名漸層_9-15" x1="91.79" y1="73.76" x2="187.25" y2="73.76" xlink:href="#未命名漸層_9"/><linearGradient id="未命名漸層_9-16" x1="100.94" y1="73.73" x2="178.2" y2="73.73" xlink:href="#未命名漸層_9"/><linearGradient id="未命名漸層_9-17" x1="117.01" y1="73.75" x2="162.08" y2="73.75" xlink:href="#未命名漸層_9"/><linearGradient id="未命名漸層_9-18" x1="123.94" y1="73.86" x2="155.05" y2="73.86" xlink:href="#未命名漸層_9"/><linearGradient id="未命名漸層_9-19" x1="132.99" y1="49.42" x2="194.71" y2="49.42" xlink:href="#未命名漸層_9"/></defs><title>icon</title><path class="cls-1" d="M83.13,187.73a32.6,32.6,0,0,1-11.2,6.1,8.16,8.16,0,0,0-.66-2.56,22.44,22.44,0,0,0,10.15-5.82Zm-9.74-10.57V168H71.58v-2.31H86.32V168H84.71V180.2H82.27v-1.3l-10.43.83-.42-2.41Zm7,5.44a21.71,21.71,0,0,1-8,4.37,7.72,7.72,0,0,0-.66-2.47,17.44,17.44,0,0,0,7-4Zm-4.52-13.25h6.45V168H75.82Zm0,3.61h6.45v-1.39H75.82Zm0,4,6.45-.53v-1.3H75.82Zm13.79,8.26a50.83,50.83,0,0,0,8.16-4.59l1.33,2.19a43.52,43.52,0,0,1-7.4,4.3,26.36,26.36,0,0,0,8.73,3.92L99,193.42a28.84,28.84,0,0,1-11.83-7.24v8H84.52V184l-3,.73L81,182c6.29-1.49,7.75-2.06,11.1-3.83l1.36,2.34a37.26,37.26,0,0,1-4.81,2.15l-1,.38Zm9.3-5.76a26.19,26.19,0,0,1-5.82-3.19,39.49,39.49,0,0,1-4.77,2.56l-1.68-2.31a20.12,20.12,0,0,0,4.49-1.83,34.38,34.38,0,0,1-3.54-4.08l2-1.55a28.69,28.69,0,0,0,3.58,4.2,10.38,10.38,0,0,0,3.57-4.84c0-.28-.28-.38-.57-.34H87.84v-2.44H98.25l1.39,1.23c-1.2,4.05-2.56,6-4.59,7.82a25,25,0,0,0,5.41,2.46Z"/><path class="cls-1" d="M112.44,187.54a20.51,20.51,0,0,1-5,6.55,7.41,7.41,0,0,0-1.59-2,14.83,14.83,0,0,0,4.21-5.88ZM123.51,183h10.63v2.44H111.37a.82.82,0,0,1-.92-.92V172.32a17,17,0,0,1-2.62,2.16l-1.74-2.09a15.34,15.34,0,0,0,6.07-7.63l2.5,1-1,2.28h7.66a21.87,21.87,0,0,0,1.64-3.1l2.41,1.23-.89,1.87H134l-.19,2.44H123.51V173h10.1v2.43h-10.1V178h10.1v2.43h-10.1ZM121,173v-2.53h-7.56a.33.33,0,0,0-.38.38V173Zm0,5.06v-2.63H113V178Zm0,4.93v-2.5H113v2.12a.33.33,0,0,0,.38.38ZM114.37,193a41.58,41.58,0,0,0,1.49-6.2l2.56.67a45.27,45.27,0,0,1-1.52,6.39Zm9.21.54a31.74,31.74,0,0,0-1.58-6l2.62-.57a52.41,52.41,0,0,1,1.58,6.2Zm9.27.57a40.68,40.68,0,0,0-3.86-6.52l2.27-1.42a36.18,36.18,0,0,1,4,6.61Z"/><path class="cls-1" d="M140.62,191.81c3.29-1.49,3.83-2.53,4.21-4.3v-5.89c0-.22-.13-.31-.35-.31h-2.91v-2.69h5.25c.47,0,.7.22.7.66v7.5a4.23,4.23,0,0,0,1,2.06c1.27,1.8,3.8,2.37,6.39,2.37,4.4,0,11.61-.29,14.8-.44l-.72,3-13.73-.06q-6.6,0-8.83-3.89a9.2,9.2,0,0,1-4.43,4.36Zm5.57-15.18a27.64,27.64,0,0,0-4.84-3.17l1.42-2.31a26,26,0,0,1,5,3.23Zm.63-6.2a28.33,28.33,0,0,0-4.84-3.14l1.42-2.3a25.8,25.8,0,0,1,5,3.22Zm6.68,5.09-.26,2.4a28.49,28.49,0,0,1-2.78,10l-2.56-.57a31,31,0,0,0,3.35-14.71v-2.46h-2.18v-2.47h3.73v-2.88h2.56v2.88h3.26v2.47h-5v2.84h4.53c.41,0,.63.22.63.57-.16,8-.67,12.91-1.39,14.55a2.17,2.17,0,0,1-2.38,1.36A11.06,11.06,0,0,1,152,189l.22-2.46a11.79,11.79,0,0,0,2.59.53c.25,0,.57,0,.76-.63.44-1.3.76-4.9.92-10.82,0-.06-.1-.09-.32-.09Zm8.44-5.82a13.36,13.36,0,0,1-2.18,3.48l-2-1.43a13.21,13.21,0,0,0,3-6.95l2.4.22-.38,2.24H170v2.44Zm5.44,12.24a10.56,10.56,0,0,1,.6,3.29c0,2.06-1.2,4.78-4.11,4.78a8.32,8.32,0,0,1-4.08-1.36l.51-2.57a6.09,6.09,0,0,0,3.28,1.33,2,2,0,0,0,2-1.8,9.81,9.81,0,0,0-.67-3.67h-5.22V179.5h4l-1-1.2c-.32-.34-.35-.38-.35-.5a.48.48,0,0,1,.1-.29l3-3.19v-.16l-.16-.06h-4.14v-2.35h7.21l1.24,1.33-4,4.37a.51.51,0,0,0-.16.41.76.76,0,0,0,.25.54l.67,1.1h3.79v2.44Z"/><path class="cls-1" d="M182.27,174.7H179.9v-1.81h2.37v-1.45h-2.56a.34.34,0,0,0-.38.38v8.92a58.29,58.29,0,0,1-1.3,13.44l-2.53-.92a46.5,46.5,0,0,0,1.4-11.6v-11.8c0-.41.18-.64.6-.64h4.65v-4.49h2.56v1.11h7.46v2.06h-7.46v1.32h7.5l1.86,1.11A10.53,10.53,0,0,1,193,174.1l-2.12-.54.57-1.81a.27.27,0,0,0,0-.15c0-.16-.16-.16-.29-.16h-6.61v1.45h5.5v1.81h-5.5c0,1.23,0,1.42.63,1.45h5c.07,0,.13-.19.19-.54l.38-1.58,1.9.82c-.54,2.82-1,3.26-2.25,3.26h-7.11c-.73,0-1.08-.41-1-1.07Zm22.37,2.37a38.66,38.66,0,0,1-4.18,9.65l1,2.81c.29.67.51,1,.7,1s.28-1.77.28-3.44l2.47.66c-.22,3.61-.73,5.63-1.36,6a1.86,1.86,0,0,1-1.08.35c-1.8,0-3.41-4.37-3.67-5.09a29.81,29.81,0,0,1-5.06,5.15L192.55,193l-12.65,1-.35-2.47,2.75-.16-.85-2.81,2.21-.57.92,3.2,3.7-.29a17.62,17.62,0,0,0,1-3.23l2.19.79-.7,2.25,1.8-.16.07,1.17a40.46,40.46,0,0,0,5.21-5.6,52.41,52.41,0,0,1-1.8-11.32h-2v-2.44h1.86l-.15-7.46,2.56.22c0,1.14-.07,2.28-.07,3.38,0,1.3,0,2.6.1,3.86h6.45v2.44h-6.29a61.05,61.05,0,0,0,1.07,8.35,49.09,49.09,0,0,0,2.6-6.71Zm-24.23,1.87H193V181H180.41Zm12.21,8.12c0,.23-.1.32-.32.32H180.94c-.19,0-.28-.09-.28-.32v-4.93a.24.24,0,0,1,.28-.28H192.3c.22,0,.32.09.32.28Zm-2.41-3.28h-7.15q-.13,0-.09.09v1.42l.09.13h7.15l.07-.13v-1.42Zm11.71-12.53a26.94,26.94,0,0,0-2.34-4.78l2.21-1.1a25.75,25.75,0,0,1,2.37,4.87Z"/><path class="cls-2" d="M83.13,187.73a32.6,32.6,0,0,1-11.2,6.1,8.16,8.16,0,0,0-.66-2.56,22.44,22.44,0,0,0,10.15-5.82Zm-9.74-10.57V168H71.58v-2.31H86.32V168H84.71V180.2H82.27v-1.3l-10.43.83-.42-2.41Zm7,5.44a21.71,21.71,0,0,1-8,4.37,7.72,7.72,0,0,0-.66-2.47,17.44,17.44,0,0,0,7-4Zm-4.52-13.25h6.45V168H75.82Zm0,3.61h6.45v-1.39H75.82Zm0,4,6.45-.53v-1.3H75.82Zm13.79,8.26a50.83,50.83,0,0,0,8.16-4.59l1.33,2.19a43.52,43.52,0,0,1-7.4,4.3,26.36,26.36,0,0,0,8.73,3.92L99,193.42a28.84,28.84,0,0,1-11.83-7.24v8H84.52V184l-3,.73L81,182c6.29-1.49,7.75-2.06,11.1-3.83l1.36,2.34a37.26,37.26,0,0,1-4.81,2.15l-1,.38Zm9.3-5.76a26.19,26.19,0,0,1-5.82-3.19,39.49,39.49,0,0,1-4.77,2.56l-1.68-2.31a20.12,20.12,0,0,0,4.49-1.83,34.38,34.38,0,0,1-3.54-4.08l2-1.55a28.69,28.69,0,0,0,3.58,4.2,10.38,10.38,0,0,0,3.57-4.84c0-.28-.28-.38-.57-.34H87.84v-2.44H98.25l1.39,1.23c-1.2,4.05-2.56,6-4.59,7.82a25,25,0,0,0,5.41,2.46Z"/><path class="cls-2" d="M112.44,187.54a20.51,20.51,0,0,1-5,6.55,7.41,7.41,0,0,0-1.59-2,14.83,14.83,0,0,0,4.21-5.88ZM123.51,183h10.63v2.44H111.37a.82.82,0,0,1-.92-.92V172.32a17,17,0,0,1-2.62,2.16l-1.74-2.09a15.34,15.34,0,0,0,6.07-7.63l2.5,1-1,2.28h7.66a21.87,21.87,0,0,0,1.64-3.1l2.41,1.23-.89,1.87H134l-.19,2.44H123.51V173h10.1v2.43h-10.1V178h10.1v2.43h-10.1ZM121,173v-2.53h-7.56a.33.33,0,0,0-.38.38V173Zm0,5.06v-2.63H113V178Zm0,4.93v-2.5H113v2.12a.33.33,0,0,0,.38.38ZM114.37,193a41.58,41.58,0,0,0,1.49-6.2l2.56.67a45.27,45.27,0,0,1-1.52,6.39Zm9.21.54a31.74,31.74,0,0,0-1.58-6l2.62-.57a52.41,52.41,0,0,1,1.58,6.2Zm9.27.57a40.68,40.68,0,0,0-3.86-6.52l2.27-1.42a36.18,36.18,0,0,1,4,6.61Z"/><path class="cls-2" d="M140.62,191.81c3.29-1.49,3.83-2.53,4.21-4.3v-5.89c0-.22-.13-.31-.35-.31h-2.91v-2.69h5.25c.47,0,.7.22.7.66v7.5a4.23,4.23,0,0,0,1,2.06c1.27,1.8,3.8,2.37,6.39,2.37,4.4,0,11.61-.29,14.8-.44l-.72,3-13.73-.06q-6.6,0-8.83-3.89a9.2,9.2,0,0,1-4.43,4.36Zm5.57-15.18a27.64,27.64,0,0,0-4.84-3.17l1.42-2.31a26,26,0,0,1,5,3.23Zm.63-6.2a28.33,28.33,0,0,0-4.84-3.14l1.42-2.3a25.8,25.8,0,0,1,5,3.22Zm6.68,5.09-.26,2.4a28.49,28.49,0,0,1-2.78,10l-2.56-.57a31,31,0,0,0,3.35-14.71v-2.46h-2.18v-2.47h3.73v-2.88h2.56v2.88h3.26v2.47h-5v2.84h4.53c.41,0,.63.22.63.57-.16,8-.67,12.91-1.39,14.55a2.17,2.17,0,0,1-2.38,1.36A11.06,11.06,0,0,1,152,189l.22-2.46a11.79,11.79,0,0,0,2.59.53c.25,0,.57,0,.76-.63.44-1.3.76-4.9.92-10.82,0-.06-.1-.09-.32-.09Zm8.44-5.82a13.36,13.36,0,0,1-2.18,3.48l-2-1.43a13.21,13.21,0,0,0,3-6.95l2.4.22-.38,2.24H170v2.44Zm5.44,12.24a10.56,10.56,0,0,1,.6,3.29c0,2.06-1.2,4.78-4.11,4.78a8.32,8.32,0,0,1-4.08-1.36l.51-2.57a6.09,6.09,0,0,0,3.28,1.33,2,2,0,0,0,2-1.8,9.81,9.81,0,0,0-.67-3.67h-5.22V179.5h4l-1-1.2c-.32-.34-.35-.38-.35-.5a.48.48,0,0,1,.1-.29l3-3.19v-.16l-.16-.06h-4.14v-2.35h7.21l1.24,1.33-4,4.37a.51.51,0,0,0-.16.41.76.76,0,0,0,.25.54l.67,1.1h3.79v2.44Z"/><path class="cls-2" d="M182.27,174.7H179.9v-1.81h2.37v-1.45h-2.56a.34.34,0,0,0-.38.38v8.92a58.29,58.29,0,0,1-1.3,13.44l-2.53-.92a46.5,46.5,0,0,0,1.4-11.6v-11.8c0-.41.18-.64.6-.64h4.65v-4.49h2.56v1.11h7.46v2.06h-7.46v1.32h7.5l1.86,1.11A10.53,10.53,0,0,1,193,174.1l-2.12-.54.57-1.81a.27.27,0,0,0,0-.15c0-.16-.16-.16-.29-.16h-6.61v1.45h5.5v1.81h-5.5c0,1.23,0,1.42.63,1.45h5c.07,0,.13-.19.19-.54l.38-1.58,1.9.82c-.54,2.82-1,3.26-2.25,3.26h-7.11c-.73,0-1.08-.41-1-1.07Zm22.37,2.37a38.66,38.66,0,0,1-4.18,9.65l1,2.81c.29.67.51,1,.7,1s.28-1.77.28-3.44l2.47.66c-.22,3.61-.73,5.63-1.36,6a1.86,1.86,0,0,1-1.08.35c-1.8,0-3.41-4.37-3.67-5.09a29.81,29.81,0,0,1-5.06,5.15L192.55,193l-12.65,1-.35-2.47,2.75-.16-.85-2.81,2.21-.57.92,3.2,3.7-.29a17.62,17.62,0,0,0,1-3.23l2.19.79-.7,2.25,1.8-.16.07,1.17a40.46,40.46,0,0,0,5.21-5.6,52.41,52.41,0,0,1-1.8-11.32h-2v-2.44h1.86l-.15-7.46,2.56.22c0,1.14-.07,2.28-.07,3.38,0,1.3,0,2.6.1,3.86h6.45v2.44h-6.29a61.05,61.05,0,0,0,1.07,8.35,49.09,49.09,0,0,0,2.6-6.71Zm-24.23,1.87H193V181H180.41Zm12.21,8.12c0,.23-.1.32-.32.32H180.94c-.19,0-.28-.09-.28-.32v-4.93a.24.24,0,0,1,.28-.28H192.3c.22,0,.32.09.32.28Zm-2.41-3.28h-7.15q-.13,0-.09.09v1.42l.09.13h7.15l.07-.13v-1.42Zm11.71-12.53a26.94,26.94,0,0,0-2.34-4.78l2.21-1.1a25.75,25.75,0,0,1,2.37,4.87Z"/><path class="cls-3" d="M108.2,149.71a6,6,0,0,1-4,3.09,6.08,6.08,0,0,1-5.11-.71,4.36,4.36,0,0,1-1.58-2.18l-.21-.64c0-.22-.07-.45-.11-.68l0-.34v-.34c0-.23,0-.46.07-.69a5.16,5.16,0,0,1,1.29-2.4,9.07,9.07,0,0,1,2.13-1.63,18.14,18.14,0,0,1,10.22-2A46.19,46.19,0,0,1,121,143.5c1.64.53,3.27,1.05,4.92,1.5a16.27,16.27,0,0,0,5,.61,13.33,13.33,0,0,0,4.86-1,5.53,5.53,0,0,0,3.23-3.33,9.43,9.43,0,0,0,.22-1.18c0-.41,0-.82,0-1.23a4.26,4.26,0,0,0-.89-2.19,5.72,5.72,0,0,0-4.19-2.26,4.17,4.17,0,0,0-4,2.39,3.45,3.45,0,0,0-.42,2.41,2.65,2.65,0,0,0,1.61,1.84,2.77,2.77,0,0,1-1.76-1.8,3.7,3.7,0,0,1,.33-2.57,5.24,5.24,0,0,1,1.69-2,4.11,4.11,0,0,1,2.56-.74,6.22,6.22,0,0,1,4.67,2.36,5,5,0,0,1,1.09,2.5c0,.45.06.9.06,1.35a8.83,8.83,0,0,1-.22,1.35,6.17,6.17,0,0,1-3.62,3.91,14.1,14.1,0,0,1-5.18,1.09,16.83,16.83,0,0,1-5.24-.6c-1.68-.43-3.33-.95-5-1.46a44.21,44.21,0,0,0-9.91-2.34,19.22,19.22,0,0,0-5,.18,16.77,16.77,0,0,0-4.75,1.56,8.44,8.44,0,0,0-2,1.44,4.48,4.48,0,0,0-1.18,2,5.6,5.6,0,0,0-.07.59l0,.3,0,.3c0,.2,0,.4.07.6l.19.58a3.87,3.87,0,0,0,1.33,2,5.77,5.77,0,0,0,4.75.85,6.58,6.58,0,0,0,2.33-1A5.24,5.24,0,0,0,108.2,149.71Z"/><path class="cls-4" d="M171,149.71a5.15,5.15,0,0,0,1.73,1.86,6.61,6.61,0,0,0,2.32,1,5.77,5.77,0,0,0,4.75-.85,3.83,3.83,0,0,0,1.34-2l.19-.58c0-.2,0-.4.07-.6l0-.3,0-.3a5.6,5.6,0,0,0-.07-.59,4.57,4.57,0,0,0-1.18-2,8.65,8.65,0,0,0-2-1.44,16.84,16.84,0,0,0-4.76-1.56,19.16,19.16,0,0,0-5-.18,44.21,44.21,0,0,0-9.91,2.34c-1.65.51-3.29,1-5,1.46a16.86,16.86,0,0,1-5.24.6,14.19,14.19,0,0,1-5.19-1.09,6.18,6.18,0,0,1-3.61-3.91,8.83,8.83,0,0,1-.22-1.35c0-.45,0-.9.06-1.35a5,5,0,0,1,1.08-2.5,6.24,6.24,0,0,1,4.68-2.36,4.11,4.11,0,0,1,2.56.74,5.33,5.33,0,0,1,1.69,2,3.64,3.64,0,0,1,.32,2.57,2.73,2.73,0,0,1-1.76,1.8,2.64,2.64,0,0,0,1.62-1.84,3.45,3.45,0,0,0-.42-2.41,4.18,4.18,0,0,0-4-2.39,5.74,5.74,0,0,0-4.19,2.26,4.44,4.44,0,0,0-.89,2.19c0,.41,0,.82,0,1.23a9.46,9.46,0,0,0,.23,1.18,5.53,5.53,0,0,0,3.23,3.33,13.33,13.33,0,0,0,4.86,1,16.31,16.31,0,0,0,5-.61c1.65-.45,3.28-1,4.91-1.5a46.28,46.28,0,0,1,10.15-2.29,18.14,18.14,0,0,1,10.22,2,9.28,9.28,0,0,1,2.13,1.63,5.25,5.25,0,0,1,1.29,2.4,5.36,5.36,0,0,1,.06.69l0,.34-.05.34c0,.23-.06.46-.1.68l-.22.64a4.4,4.4,0,0,1-1.57,2.18,6.09,6.09,0,0,1-5.11.71A5.92,5.92,0,0,1,171,149.71Z"/><polygon class="cls-5" points="-0.39 205.47 34.61 205.12 69.61 204.91 139.61 204.74 209.61 204.91 244.61 205.11 279.61 205.47 244.61 205.84 209.61 206.04 139.61 206.22 69.61 206.04 34.61 205.84 -0.39 205.47"/><path class="cls-6" d="M102.6,210.8l-1.07.15c-.7.1-1.7.27-2.93.5-2.46.45-5.82,1.25-9.53,1.9-.93.18-1.84.3-2.72.44s-1.71.21-2.52.26c-1.63.08-3.1.07-4.34,0l-1.67-.12-1.26-.16-1.07-.17,1,.34,1.24.33c.49.1,1,.22,1.67.32a30.36,30.36,0,0,0,4.42.37,19.93,19.93,0,0,0,2.63-.14c.9-.11,1.84-.22,2.78-.4A78.65,78.65,0,0,0,98.73,212Z"/><path class="cls-7" d="M135.46,225a8.22,8.22,0,0,1-1.07,2.09,9.16,9.16,0,0,1-1.38,1.55,10.89,10.89,0,0,1-1.53,1.12l-.41.23-.21.11-.22.1-.44.19-.22.09-.22.07a9,9,0,0,1-1.8.41,12,12,0,0,1-1.79.1,13.57,13.57,0,0,1-5-1.08c-.25-.1-.5-.22-.74-.33l-.37-.19-.35-.2-.35-.2-.34-.22-.16-.11-.17-.11-.32-.24-.3-.25-.16-.12-.14-.13-.29-.26-.28-.28-.26-.28-.26-.29c-.15-.21-.32-.4-.45-.62a7.63,7.63,0,0,1-.74-1.3c-.05-.11-.1-.23-.14-.34l-.07-.17-.06-.18-.11-.34c0-.12,0-.24-.08-.36l0-.17,0-.18,0-.35,0-.36v-.35c0-.11,0-.23,0-.34l0-.34,0-.17,0-.17.06-.33.09-.32a.94.94,0,0,1,0-.16l0-.15c0-.11.07-.21.11-.31s.09-.19.13-.29a.61.61,0,0,1,.07-.14l.07-.14.15-.27c.06-.09.11-.18.17-.26l.08-.13.09-.12.18-.24.2-.22a3.87,3.87,0,0,1,.4-.41,5.67,5.67,0,0,1,1.8-1.12,5.23,5.23,0,0,1,1.79-.36,5.06,5.06,0,0,1,1.52.19l.16,0,.15.06.3.11.5.24.41.25.12.1a2.09,2.09,0,1,1-1.07,0l-.15-.05-.27-.06-.14,0-.15,0a4.65,4.65,0,0,0-2.82.39,4.92,4.92,0,0,0-1.44,1,3.73,3.73,0,0,0-.32.36l-.15.19-.13.2-.07.1-.07.11-.12.22a2.4,2.4,0,0,0-.11.23l-.06.12,0,.12-.09.24-.08.25,0,.13,0,.13-.05.26,0,.27,0,.13V222c0,.05,0,.1,0,.15v.14l0,.28.06.28c0,.05,0,.1,0,.14l0,.15c0,.09,0,.18.08.28l.1.28,0,.14.06.14c0,.09.08.19.13.28a8.66,8.66,0,0,0,3.73,3.68l.32.17.32.16.68.29a14.56,14.56,0,0,0,1.41.47,12,12,0,0,0,3,.42,10,10,0,0,0,1.54-.09,7.73,7.73,0,0,0,1.51-.36l.18-.06.18-.07a3.68,3.68,0,0,0,.35-.15l.17-.09a.76.76,0,0,0,.18-.09l.34-.19a8,8,0,0,0,1.29-.94,7.44,7.44,0,0,0,1.14-1.27,7,7,0,0,0,.88-1.7,7.75,7.75,0,0,0,.42-2.1,5.56,5.56,0,0,0,0-.58c0-.19,0-.39,0-.58a10.4,10.4,0,0,0-.18-1.21,11,11,0,0,0-.34-1.21,9.19,9.19,0,0,0-.52-1.21,9.87,9.87,0,0,0-.68-1.17c-.14-.19-.26-.39-.41-.57l-.22-.27-.23-.27a2,2,0,0,0-.24-.26l-.24-.26-.54-.52a3.45,3.45,0,0,0-.28-.26l-.28-.25-.29-.25a3.36,3.36,0,0,0-.29-.24l-.6-.48c-.2-.16-.42-.3-.63-.45a7.31,7.31,0,0,0-.65-.43l-.33-.21-.34-.19-.35-.19a3.84,3.84,0,0,0-.35-.18l-.72-.35-.75-.3a2.46,2.46,0,0,0-.38-.14l-.38-.14a27.78,27.78,0,0,0-3.23-.84l-.84-.16-.42-.07-.42-.07-.86-.12-.86-.11-.87-.11-.87-.09-.87-.08-.44,0-.43,0-.88,0h-.87c-.59,0-1.18,0-1.77,0l-.88,0-.88.06c-.59.05-1.17.1-1.76.17-1.17.13-2.34.31-3.5.49s-2.32.39-3.46.61l-3.41.65-3.34.63c-2.19.41-4.32.84-6.39,1.15-1,.16-2.05.28-3.05.37s-2,.12-2.91.11a20.14,20.14,0,0,1-5.22-.71,11.67,11.67,0,0,1-2.17-.85,5.66,5.66,0,0,1-1.67-1.28,3.33,3.33,0,0,1-.51-.81,2.81,2.81,0,0,1-.23-.87c0-.07,0-.14,0-.21v-.21a3,3,0,0,1,.25-1.11,2.71,2.71,0,0,1,.73-1,1.47,1.47,0,0,1,.84-.35,1.16,1.16,0,0,1,.55.08l.13.06,0,0a1.35,1.35,0,0,1-.18,0,1.38,1.38,0,0,0-1.3.34,2.62,2.62,0,0,0-.65,1,2.74,2.74,0,0,0-.17.67c0,.12,0,.24,0,.37a1.34,1.34,0,0,0,0,.2l0,.19a3,3,0,0,0,.24.79,3.11,3.11,0,0,0,.49.73,5.28,5.28,0,0,0,1.61,1.16,11.49,11.49,0,0,0,2.12.76,20,20,0,0,0,5.11.57c.93,0,1.88-.07,2.86-.18s2-.25,3-.43c2-.35,4.15-.82,6.34-1.28l3.33-.69c1.12-.24,2.25-.49,3.39-.72s2.31-.47,3.48-.68,2.35-.41,3.54-.56c.59-.08,1.19-.14,1.79-.2.3,0,.6-.06.9-.08s.6-.06.91-.07c.6,0,1.2-.07,1.81-.07h.9l.91,0h.45l.45,0,.9.06.89.09c.29,0,.59,0,.88.09l.88.1.88.11.44.06.44.07.87.15a26.52,26.52,0,0,1,3.41.84l.41.14.41.14.81.32.79.36.38.19.38.2.38.21.36.22c.24.15.48.29.71.45l.68.48.66.51.31.25.31.27.31.26.29.27.58.54.28.29.28.3.26.3c.09.1.17.21.25.31s.32.42.48.63a14.08,14.08,0,0,1,.79,1.33,13.84,13.84,0,0,1,.61,1.38,12.48,12.48,0,0,1,.41,1.41A9.73,9.73,0,0,1,135.46,225Z"/><path class="cls-8" d="M176.61,210.8l1.08.15c.69.1,1.69.27,2.92.5,2.47.45,5.82,1.25,9.54,1.9.92.18,1.84.3,2.71.44s1.72.21,2.53.26c1.62.08,3.1.07,4.34,0l1.67-.12,1.26-.16,1.07-.17-1,.34c-.33.1-.75.2-1.24.33s-1,.22-1.66.32a30.48,30.48,0,0,1-4.42.37,20.07,20.07,0,0,1-2.64-.14c-.9-.11-1.83-.22-2.77-.4a79.38,79.38,0,0,1-9.48-2.45Z"/><path class="cls-9" d="M143.75,225a8.24,8.24,0,0,0,1.08,2.09,8.75,8.75,0,0,0,1.38,1.55,10.34,10.34,0,0,0,1.53,1.12l.41.23.21.11.22.1.43.19.22.09.23.07a8.83,8.83,0,0,0,1.8.41,12,12,0,0,0,1.79.1,14,14,0,0,0,3.4-.52A13.25,13.25,0,0,0,158,230c.26-.1.51-.22.75-.33l.36-.19.36-.2.35-.2.33-.22.17-.11.16-.11.32-.24.31-.25.15-.12.15-.13.29-.26.28-.28.26-.28.25-.29c.16-.21.32-.4.46-.62a7.63,7.63,0,0,0,.74-1.3c0-.11.09-.23.14-.34l.07-.17.06-.18c0-.11.07-.23.11-.34s0-.24.08-.36l0-.17,0-.18,0-.35c0-.12,0-.24,0-.36l0-.17c0-.06,0-.12,0-.18v-.34c0-.12,0-.23,0-.34v-.17l0-.17-.06-.33-.09-.32s0-.11,0-.16l-.06-.15a2.83,2.83,0,0,0-.11-.31l-.13-.29-.06-.14-.08-.14-.14-.27-.17-.26-.08-.13-.09-.12-.18-.24-.2-.22a5.18,5.18,0,0,0-.4-.41,5.78,5.78,0,0,0-1.8-1.12,5.24,5.24,0,0,0-1.8-.36,5,5,0,0,0-1.51.19l-.16,0-.16.06-.29.11-.5.24-.41.25-.13.1a2.1,2.1,0,1,0,1.07,0l.15-.05.28-.06.14,0,.15,0a4.75,4.75,0,0,1,1.32,0,4.9,4.9,0,0,1,2.94,1.46,3.65,3.65,0,0,1,.31.36l.15.19.14.2a.86.86,0,0,0,.07.1l.06.11.13.22.11.23.06.12,0,.12.1.24.07.25,0,.13,0,.13.06.26,0,.27,0,.13v.14l0,.28v.42l0,.14c0,.09,0,.18,0,.28l-.05.28,0,.14,0,.15-.08.28-.1.28-.05.14-.06.14c0,.09-.09.19-.13.28a8.69,8.69,0,0,1-3.74,3.68l-.31.17-.33.16-.67.29c-.45.18-.93.33-1.41.47a12.16,12.16,0,0,1-3,.42,10.08,10.08,0,0,1-1.55-.09A7.63,7.63,0,0,1,150,229l-.18-.06-.18-.07a3.68,3.68,0,0,1-.35-.15l-.18-.09-.17-.09-.35-.19a8.43,8.43,0,0,1-1.28-.94,7.44,7.44,0,0,1-1.14-1.27,6.65,6.65,0,0,1-.88-1.7,7.39,7.39,0,0,1-.42-2.1c0-.19,0-.38,0-.58s0-.39,0-.58A8.63,8.63,0,0,1,145,220a9.76,9.76,0,0,1,.86-2.42,9.87,9.87,0,0,1,.68-1.17c.13-.19.26-.39.41-.57l.21-.27.23-.27.24-.26.25-.26.54-.52.27-.26.29-.25.28-.25a3.5,3.5,0,0,1,.3-.24l.6-.48c.2-.16.41-.3.62-.45s.43-.29.65-.43l.34-.21.34-.19.34-.19c.12-.06.23-.13.36-.18l.72-.35.74-.3a3.57,3.57,0,0,1,.38-.14l.39-.14a27.1,27.1,0,0,1,3.22-.84l.84-.16.43-.07.42-.07.86-.12.86-.11.87-.11.87-.09.87-.08.43,0,.44,0,.87,0h.88c.59,0,1.17,0,1.76,0l.88,0,.89.06c.58.05,1.17.1,1.76.17,1.17.13,2.34.31,3.5.49s2.31.39,3.46.61l3.41.65,3.34.63c2.19.41,4.32.84,6.39,1.15,1,.16,2.05.28,3,.37s2,.12,2.92.11a20.2,20.2,0,0,0,5.22-.71,11.67,11.67,0,0,0,2.17-.85,5.49,5.49,0,0,0,1.66-1.28,3.38,3.38,0,0,0,.52-.81,3.5,3.5,0,0,0,.23-.87v-.21a1.47,1.47,0,0,0,0-.21,1.75,1.75,0,0,0,0-.4,3,3,0,0,0-.21-.71,2.71,2.71,0,0,0-.73-1,1.49,1.49,0,0,0-.84-.35,1.16,1.16,0,0,0-.55.08l-.13.06,0,0a1.35,1.35,0,0,0,.18,0,1.37,1.37,0,0,1,1.29.34,2.51,2.51,0,0,1,.65,1,2.74,2.74,0,0,1,.18.67,2.26,2.26,0,0,1,0,.37,1.34,1.34,0,0,1,0,.2l0,.19a3,3,0,0,1-.24.79,2.88,2.88,0,0,1-.5.73,5.24,5.24,0,0,1-1.6,1.16,11.76,11.76,0,0,1-2.12.76,20,20,0,0,1-5.11.57c-.93,0-1.88-.07-2.86-.18s-2-.25-3-.43c-2-.35-4.15-.82-6.35-1.28l-3.32-.69c-1.12-.24-2.25-.49-3.4-.72s-2.3-.47-3.47-.68-2.35-.41-3.54-.56c-.6-.08-1.2-.14-1.8-.2-.29,0-.6-.06-.9-.08s-.6-.06-.9-.07c-.6,0-1.2-.07-1.81-.07H166l-.9,0h-.45l-.45,0-.91.06-.88.09c-.3,0-.59,0-.89.09l-.88.1-.88.11-.43.06-.44.07-.87.15a26.11,26.11,0,0,0-3.41.84l-.42.14-.41.14-.8.32-.79.36-.39.19-.37.2c-.13.07-.26.13-.38.21l-.36.22c-.24.15-.49.29-.71.45l-.69.48-.65.51-.32.25-.3.27-.31.26-.29.27-.58.54-.29.29-.27.3-.27.3c-.08.1-.16.21-.25.31s-.31.42-.47.63a14.08,14.08,0,0,0-.79,1.33,11.86,11.86,0,0,0-.61,1.38,12.48,12.48,0,0,0-.41,1.41A9.73,9.73,0,0,0,143.75,225Z"/><path class="cls-10" d="M139.67,248.37c.41-.92.66-1.47.89-2a13.37,13.37,0,0,0,.17-9.82c-.68-2-.74-4.24-1.32-6.39-.33,2-.65,3.9-1,5.85a8.14,8.14,0,0,1-.52,2.42c-1.71,3.11.27,5.84.8,8.71C138.76,247.42,139.13,247.68,139.67,248.37Z"/><path class="cls-11" d="M133.84,240.56a19.08,19.08,0,0,0,3.54-13.23,15.55,15.55,0,0,1-3.58,9.72c-.64.74-.35,2.27-.49,3.44Z"/><path class="cls-12" d="M141.6,228.25a20.18,20.18,0,0,0,3.8,12.29l.52-.08c-.16-1.17.08-2.65-.55-3.44A15.12,15.12,0,0,1,142,228.9C142,228.73,141.8,228.58,141.6,228.25Z"/><path class="cls-13" d="M139.53,121.5a47.75,47.75,0,1,1,20.28-91,1.71,1.71,0,0,1-1.45,3.09,44.46,44.46,0,0,0-50.17,8.8,44.33,44.33,0,1,0,62.69,62.69,44.57,44.57,0,0,0,9.06-49.62,1.71,1.71,0,0,1,3.11-1.4,48,48,0,0,1-9.76,53.44A47.39,47.39,0,0,1,139.53,121.5Z"/><path class="cls-14" d="M139.53,112.35a38.61,38.61,0,1,1,17.54-73,1.71,1.71,0,1,1-1.55,3,35.19,35.19,0,1,0,15.11,14.85,1.7,1.7,0,0,1,3-1.6,38.59,38.59,0,0,1-34.11,56.71Z"/><path class="cls-15" d="M139.53,96.28a22.53,22.53,0,1,1,6.29-44.17,1.71,1.71,0,1,1-.95,3.28,19.13,19.13,0,1,0,13.24,13.82,1.71,1.71,0,0,1,3.32-.81,22.53,22.53,0,0,1-21.9,27.88Z"/><path class="cls-16" d="M139.53,89.35a15.59,15.59,0,0,1-2.66-31,1.7,1.7,0,1,1,.58,3.36,12.18,12.18,0,1,0,14.2,13.3,1.7,1.7,0,0,1,3.39.36,15.58,15.58,0,0,1-15.51,13.94Z"/><path class="cls-17" d="M134.68,80.26a1.67,1.67,0,0,1-1.08-.39c-1-.81-1-.81,2-13.54a1.71,1.71,0,0,1,2.9-.79l1.12,1.18,26.84-26.84-1.67-4.25a1.72,1.72,0,0,1,.39-1.83l14.72-14.72a1.71,1.71,0,0,1,2.81.62l2.93,8,8,2.93a1.71,1.71,0,0,1,.62,2.81L179.49,48.16a1.71,1.71,0,0,1-1.83.39l-4.25-1.67L146.57,73.72l1.18,1.12a1.71,1.71,0,0,1-.83,2.91L135,80.22A2.09,2.09,0,0,1,134.68,80.26Zm3.49-10.07c-.54,2.35-1,4.59-1.37,6.18l6.24-1.3L143,75a1.71,1.71,0,0,1-.53-1.21,1.77,1.77,0,0,1,.5-1.23l28.87-28.87a1.7,1.7,0,0,1,1.83-.38L177.86,45l12-12-6.24-2.28a1.71,1.71,0,0,1-1-1l-2.28-6.24-12,12.05L170,39.67a1.7,1.7,0,0,1-.38,1.83L140.75,70.37a1.81,1.81,0,0,1-1.23.5,1.71,1.71,0,0,1-1.21-.53Z"/></svg>