<svg id="圖層_1" data-name="圖層 1" xmlns="http://www.w3.org/2000/svg" xmlns:xlink="http://www.w3.org/1999/xlink" viewBox="0 0 280 252"><defs><style>.cls-1{fill:#1c232f;}.cls-2{fill:url(#未命名漸層_9);}.cls-3{fill:url(#未命名漸層_9-5);}.cls-4{fill:url(#未命名漸層_9-6);}.cls-5{fill:url(#未命名漸層_9-7);}.cls-6{fill:url(#未命名漸層_9-8);}.cls-7{fill:url(#未命名漸層_9-9);}.cls-8{fill:url(#未命名漸層_9-10);}.cls-9{fill:url(#未命名漸層_9-11);}.cls-10{fill:url(#未命名漸層_9-12);}.cls-11{fill:url(#未命名漸層_9-13);}.cls-12{fill:url(#未命名漸層_9-14);}.cls-13{fill:url(#未命名漸層_9-15);}.cls-14{fill:url(#未命名漸層_9-16);}.cls-15{fill:url(#未命名漸層_9-17);}.cls-16{fill:url(#未命名漸層_9-18);}.cls-17{fill:url(#未命名漸層_9-19);}.cls-18{fill:url(#未命名漸層_9-20);}</style><linearGradient id="未命名漸層_9" x1="71.49" y1="179.54" x2="205.55" y2="179.54" gradientUnits="userSpaceOnUse"><stop offset="0.41" stop-color="#ffffbc"/><stop offset="0.54" stop-color="#f7eca3"/><stop offset="0.73" stop-color="#edd685"/><stop offset="0.84" stop-color="#e9ce7a"/><stop offset="0.88" stop-color="#e7cb78"/><stop offset="0.92" stop-color="#e1c074"/><stop offset="0.96" stop-color="#d8af6c"/><stop offset="0.99" stop-color="#cb9761"/><stop offset="1" stop-color="#c58d5c"/></linearGradient><linearGradient id="未命名漸層_9-5" x1="97.73" y1="143.51" x2="140.52" y2="143.51" xlink:href="#未命名漸層_9"/><linearGradient id="未命名漸層_9-6" x1="139.84" y1="143.51" x2="182.63" y2="143.51" xlink:href="#未命名漸層_9"/><linearGradient id="未命名漸層_9-7" x1="0.18" y1="205.48" x2="280.18" y2="205.48" xlink:href="#未命名漸層_9"/><linearGradient id="未命名漸層_9-8" x1="76.06" y1="212.88" x2="103.17" y2="212.88" xlink:href="#未命名漸層_9"/><linearGradient id="未命名漸層_9-9" x1="71.69" y1="218.22" x2="136.54" y2="218.22" xlink:href="#未命名漸層_9"/><linearGradient id="未命名漸層_9-10" x1="177.19" y1="212.88" x2="204.3" y2="212.88" xlink:href="#未命名漸層_9"/><linearGradient id="未命名漸層_9-11" x1="143.82" y1="218.22" x2="208.67" y2="218.22" xlink:href="#未命名漸層_9"/><linearGradient id="未命名漸層_9-12" x1="137.79" y1="239.25" x2="142.15" y2="239.25" xlink:href="#未命名漸層_9"/><linearGradient id="未命名漸層_9-13" x1="133.88" y1="233.94" x2="138.07" y2="233.94" xlink:href="#未命名漸層_9"/><linearGradient id="未命名漸層_9-14" x1="142.17" y1="234.4" x2="146.49" y2="234.4" xlink:href="#未命名漸層_9"/><linearGradient id="未命名漸層_9-15" x1="57.11" y1="76.29" x2="79.63" y2="76.29" xlink:href="#未命名漸層_9"/><linearGradient id="未命名漸層_9-16" x1="200.73" y1="76.29" x2="223.25" y2="76.29" xlink:href="#未命名漸層_9"/><linearGradient id="未命名漸層_9-17" x1="124.1" y1="78.58" x2="179.77" y2="78.58" xlink:href="#未命名漸層_9"/><linearGradient id="未命名漸層_9-18" x1="129.11" y1="78.58" x2="174.76" y2="78.58" xlink:href="#未命名漸層_9"/><linearGradient id="未命名漸層_9-19" x1="137.06" y1="100.36" x2="166.53" y2="100.36" xlink:href="#未命名漸層_9"/><linearGradient id="未命名漸層_9-20" x1="100.59" y1="53.8" x2="161.24" y2="53.8" xlink:href="#未命名漸層_9"/></defs><title>icon</title><path class="cls-1" d="M74.62,178.05l-.54.85-2.59-1A29.43,29.43,0,0,0,76.33,165l2.53.35a38.71,38.71,0,0,1-1.68,7v21.63H74.62Zm8.19,10.79-3.35,2.08L78,189.06a16,16,0,0,0,6.65-5.13l-.16-.76v-2.72H80.31a.19.19,0,0,0-.22.22V183H77.91v-4.33c0-.28.13-.38.41-.38h2.44v-8.6a.64.64,0,0,1,.72-.73H87.3l.45-1.46H79.84v-2.21H99.26v2.21h-9l-.38,1.46h7.34c.54,0,.79.22.79.73v8.6h1.23l2,1a17.41,17.41,0,0,1-1.07,4.56l-2.06-.64a19.59,19.59,0,0,0,.54-2.34c0-.28-.09-.38-.32-.38H89.8a11.11,11.11,0,0,1,1.9,1.68l-1.07,1.14h1.29c.73,0,.83-.48,1.14-2.06l2,.76a12.73,12.73,0,0,1-.72,2.53,2.19,2.19,0,0,1-1.49.79H86.36l-.7.92h11l1.64,1.17a.16.16,0,0,1,.13.16s-1.11,1.83-5.28,3.73a37.91,37.91,0,0,0,7.15.54l-.7,2.44a33.65,33.65,0,0,1-9.58-1.71,38.76,38.76,0,0,1-10.57,1.77l-.41-2.53a40.56,40.56,0,0,0,7.56-.7Zm.86-6.65a14.4,14.4,0,0,1-3.39,4.31,6.31,6.31,0,0,0-1.48-1.74A9.41,9.41,0,0,0,81.45,181Zm-.48-10.12h12.4v-1c0-.22-.12-.32-.35-.32H83.51a.28.28,0,0,0-.32.32Zm0,3.1h12.4v-1.39H83.19Zm0,3.1h12.4v-1.39H83.19Zm2.82,10a31.21,31.21,0,0,0,3.73,1.93l4.18-1.71c0-.16-.13-.25-.35-.22Zm4.2-5a11.34,11.34,0,0,0-1.86-1.58l1-1.24H86.64v1.62a1.21,1.21,0,0,0,1.2,1.2Zm7.09,2.94a33.9,33.9,0,0,0-2.09-3.51l1.77-1a24.79,24.79,0,0,1,2.15,3.61Z"/><path class="cls-1" d="M114,171.19h-3.35a11.34,11.34,0,0,1-2.12,5.18l-2.27-1.74a7.54,7.54,0,0,0,1.92-4.68V166c0-.57.19-.89.76-.89h1.84a59.1,59.1,0,0,0,8-.44l.76,2.5a66.6,66.6,0,0,1-8.41.47c-.41,0-.41.13-.41,1.11h10.94v2.44h-5.12v3.57H114ZM126.33,190H116.27l.6,2.09a46.45,46.45,0,0,1-9.64,2.34l-.54-2.53A61.65,61.65,0,0,0,115,190h-5.13c-.47,0-.66-.25-.66-.72V176c0-.44.19-.66.66-.66h12.25l-1.81-1.71a6.24,6.24,0,0,0,2.41-4.27v-3.45c0-.57.22-.85.72-.85l2.88,0a58.43,58.43,0,0,0,7.18-.38l.7,2.5a75.38,75.38,0,0,1-8.57.35c-.35,0-.35.12-.35,1.23h10.44v2.44H131v3.57h-2.56v-3.57h-3.32a10.85,10.85,0,0,1-2.47,4.11h9.81c.47,0,.69.22.69.66v13.29c0,.47-.22.72-.69.72H128a43.15,43.15,0,0,1,7.46,1.93l-.66,2.5a47.87,47.87,0,0,0-8.92-2.12Zm-14.39-10.24h18.53v-1.87c0-.1,0-.13-.09-.13H112c-.09,0-.09.07-.06.13Zm18.53,6.16H111.94v1.49c0,.1,0,.13.06.16h18.38l.09-.16Zm-18.53-2.21h18.53v-1.74H111.94Z"/><path class="cls-1" d="M154.16,165.9c.54,0,.76.26.76.73v9.93a.7.7,0,0,1-.79.79h-8.95v16.58h-2.56v-27.3a.64.64,0,0,1,.72-.73Zm-9,4.46h7.18v-1.42a.53.53,0,0,0-.6-.6h-6a.53.53,0,0,0-.6.63Zm7.18,2.44h-7.18v2.12h6.51a.59.59,0,0,0,.67-.67Zm5.69,13.95h-4.46c-.19,2.94-1.87,5.12-4.84,6.48l-1.64-2.08c1.77-.64,3.89-2,4-4.4h-4.24v-2.44h4.27v-2.56h-3.77v-2.31h16.83v2.31h-3.64v2.56H165v2.44h-4.4v5.95h-2.56Zm0-2.44v-2.56h-4.43v2.56Zm8.64-7h-8.92a.75.75,0,0,1-.83-.85v-9.81a.72.72,0,0,1,.79-.79h10.66c.61,0,.86.29.86.83v24.64c0,1.33-.86,2.88-3.86,2.88a12.48,12.48,0,0,1-3.48-.54l.25-2.82a12.94,12.94,0,0,0,3.36.63c.5,0,1.17,0,1.17-1.2Zm-7.18-7h7.18v-1.29c0-.48-.23-.73-.76-.73h-5.82c-.41,0-.64.22-.6.63Zm7.18,2.44h-7.18v1.36c0,.51.25.76.72.76h6.46Z"/><path class="cls-1" d="M180.5,186.31l-.16,1.13-2.37-.63.95-6.83c.13-.57.44-.86,1-.79h6.61V177c0-.19-.09-.28-.32-.28h-6.51v-1.46l-2.63.64L176,173.56a38.91,38.91,0,0,0,4.87-1.11,27.46,27.46,0,0,0-3.07-2.21l1.61-2c1.49,1,2.85,2.06,4,3,2.25-1.58,3.51-3,3.51-3.29s-.19-.16-.31-.16h-5.35V165.4h7.69l1.42,1.2a14.18,14.18,0,0,1-8.29,7.75h6.23c.42,0,.64.19.64.6v7.27h-2.44v-.72h-4.74c-.29,0-.48.22-.51.6l-.35,1.9h7c.54,0,.82.15.82.44,0,2.5-.25,5.79-.38,6.77a3.62,3.62,0,0,1-1.2,2c-.6.51-1.17,1-3.32,1a22.19,22.19,0,0,1-4.65-.63l-.22-2.75a17,17,0,0,0,4.65,1,2.44,2.44,0,0,0,2.34-1.3l.25-3.67c0-.32-.12-.47-.41-.47Zm24,7.78a17.21,17.21,0,0,1-8.45-2.38l-.63.35a25.09,25.09,0,0,1-5,2.09L189,191.68a25.61,25.61,0,0,0,4.84-1.55,14.21,14.21,0,0,1-3.32-4l2.27-1.17a13.42,13.42,0,0,0,3.32,4c3.48-2.18,4.47-4.43,4.47-4.65s-.26-.28-.51-.25h-9.59v-2.44H202.2l1.39,1.36a15.06,15.06,0,0,1-3.32,5.6l-1.9,1.65a18.34,18.34,0,0,0,6.84,1.26ZM194.1,175.87c-.31,0-.31.12-.31,1.1a4.57,4.57,0,0,1-3.07,4.34l-1.49-2c1.3-.63,2.25-1.13,2.25-3.1v-2l.13-.38.37-.13h7.22l.38.13.15.38v3.35l.16.79a1.24,1.24,0,0,0,.89.29,3.49,3.49,0,0,0,.95-.16c.09,0,.15-.22.15-.63l.07-1.36,2.18.35-.25,2.53a2.14,2.14,0,0,1-2,1.48H199.7a2.29,2.29,0,0,1-2.31-2.27v-2.35a.31.31,0,0,0-.35-.34Zm6.61-4.46a47.66,47.66,0,0,0,4.84,1.83L204,175.52a36.08,36.08,0,0,1-12.68-8l1.39-2.24,2.37,2.37a31.47,31.47,0,0,0,2.5-2.75l1.71,1.71-2.37,2.5,1.64,1.14,2.79-2.88,1.64,1.74-1.64,1.74Z"/><path class="cls-2" d="M74.62,178.05l-.54.85-2.59-1A29.43,29.43,0,0,0,76.33,165l2.53.35a38.71,38.71,0,0,1-1.68,7v21.63H74.62Zm8.19,10.79-3.35,2.08L78,189.06a16,16,0,0,0,6.65-5.13l-.16-.76v-2.72H80.31a.19.19,0,0,0-.22.22V183H77.91v-4.33c0-.28.13-.38.41-.38h2.44v-8.6a.64.64,0,0,1,.72-.73H87.3l.45-1.46H79.84v-2.21H99.26v2.21h-9l-.38,1.46h7.34c.54,0,.79.22.79.73v8.6h1.23l2,1a17.41,17.41,0,0,1-1.07,4.56l-2.06-.64a19.59,19.59,0,0,0,.54-2.34c0-.28-.09-.38-.32-.38H89.8a11.11,11.11,0,0,1,1.9,1.68l-1.07,1.14h1.29c.73,0,.83-.48,1.14-2.06l2,.76a12.73,12.73,0,0,1-.72,2.53,2.19,2.19,0,0,1-1.49.79H86.36l-.7.92h11l1.64,1.17a.16.16,0,0,1,.13.16s-1.11,1.83-5.28,3.73a37.91,37.91,0,0,0,7.15.54l-.7,2.44a33.65,33.65,0,0,1-9.58-1.71,38.76,38.76,0,0,1-10.57,1.77l-.41-2.53a40.56,40.56,0,0,0,7.56-.7Zm.86-6.65a14.4,14.4,0,0,1-3.39,4.31,6.31,6.31,0,0,0-1.48-1.74A9.41,9.41,0,0,0,81.45,181Zm-.48-10.12h12.4v-1c0-.22-.12-.32-.35-.32H83.51a.28.28,0,0,0-.32.32Zm0,3.1h12.4v-1.39H83.19Zm0,3.1h12.4v-1.39H83.19Zm2.82,10a31.21,31.21,0,0,0,3.73,1.93l4.18-1.71c0-.16-.13-.25-.35-.22Zm4.2-5a11.34,11.34,0,0,0-1.86-1.58l1-1.24H86.64v1.62a1.21,1.21,0,0,0,1.2,1.2Zm7.09,2.94a33.9,33.9,0,0,0-2.09-3.51l1.77-1a24.79,24.79,0,0,1,2.15,3.61Z"/><path class="cls-2" d="M114,171.19h-3.35a11.34,11.34,0,0,1-2.12,5.18l-2.27-1.74a7.54,7.54,0,0,0,1.92-4.68V166c0-.57.19-.89.76-.89h1.84a59.1,59.1,0,0,0,8-.44l.76,2.5a66.6,66.6,0,0,1-8.41.47c-.41,0-.41.13-.41,1.11h10.94v2.44h-5.12v3.57H114ZM126.33,190H116.27l.6,2.09a46.45,46.45,0,0,1-9.64,2.34l-.54-2.53A61.65,61.65,0,0,0,115,190h-5.13c-.47,0-.66-.25-.66-.72V176c0-.44.19-.66.66-.66h12.25l-1.81-1.71a6.24,6.24,0,0,0,2.41-4.27v-3.45c0-.57.22-.85.72-.85l2.88,0a58.43,58.43,0,0,0,7.18-.38l.7,2.5a75.38,75.38,0,0,1-8.57.35c-.35,0-.35.12-.35,1.23h10.44v2.44H131v3.57h-2.56v-3.57h-3.32a10.85,10.85,0,0,1-2.47,4.11h9.81c.47,0,.69.22.69.66v13.29c0,.47-.22.72-.69.72H128a43.15,43.15,0,0,1,7.46,1.93l-.66,2.5a47.87,47.87,0,0,0-8.92-2.12Zm-14.39-10.24h18.53v-1.87c0-.1,0-.13-.09-.13H112c-.09,0-.09.07-.06.13Zm18.53,6.16H111.94v1.49c0,.1,0,.13.06.16h18.38l.09-.16Zm-18.53-2.21h18.53v-1.74H111.94Z"/><path class="cls-2" d="M154.16,165.9c.54,0,.76.26.76.73v9.93a.7.7,0,0,1-.79.79h-8.95v16.58h-2.56v-27.3a.64.64,0,0,1,.72-.73Zm-9,4.46h7.18v-1.42a.53.53,0,0,0-.6-.6h-6a.53.53,0,0,0-.6.63Zm7.18,2.44h-7.18v2.12h6.51a.59.59,0,0,0,.67-.67Zm5.69,13.95h-4.46c-.19,2.94-1.87,5.12-4.84,6.48l-1.64-2.08c1.77-.64,3.89-2,4-4.4h-4.24v-2.44h4.27v-2.56h-3.77v-2.31h16.83v2.31h-3.64v2.56H165v2.44h-4.4v5.95h-2.56Zm0-2.44v-2.56h-4.43v2.56Zm8.64-7h-8.92a.75.75,0,0,1-.83-.85v-9.81a.72.72,0,0,1,.79-.79h10.66c.61,0,.86.29.86.83v24.64c0,1.33-.86,2.88-3.86,2.88a12.48,12.48,0,0,1-3.48-.54l.25-2.82a12.94,12.94,0,0,0,3.36.63c.5,0,1.17,0,1.17-1.2Zm-7.18-7h7.18v-1.29c0-.48-.23-.73-.76-.73h-5.82c-.41,0-.64.22-.6.63Zm7.18,2.44h-7.18v1.36c0,.51.25.76.72.76h6.46Z"/><path class="cls-2" d="M180.5,186.31l-.16,1.13-2.37-.63.95-6.83c.13-.57.44-.86,1-.79h6.61V177c0-.19-.09-.28-.32-.28h-6.51v-1.46l-2.63.64L176,173.56a38.91,38.91,0,0,0,4.87-1.11,27.46,27.46,0,0,0-3.07-2.21l1.61-2c1.49,1,2.85,2.06,4,3,2.25-1.58,3.51-3,3.51-3.29s-.19-.16-.31-.16h-5.35V165.4h7.69l1.42,1.2a14.18,14.18,0,0,1-8.29,7.75h6.23c.42,0,.64.19.64.6v7.27h-2.44v-.72h-4.74c-.29,0-.48.22-.51.6l-.35,1.9h7c.54,0,.82.15.82.44,0,2.5-.25,5.79-.38,6.77a3.62,3.62,0,0,1-1.2,2c-.6.51-1.17,1-3.32,1a22.19,22.19,0,0,1-4.65-.63l-.22-2.75a17,17,0,0,0,4.65,1,2.44,2.44,0,0,0,2.34-1.3l.25-3.67c0-.32-.12-.47-.41-.47Zm24,7.78a17.21,17.21,0,0,1-8.45-2.38l-.63.35a25.09,25.09,0,0,1-5,2.09L189,191.68a25.61,25.61,0,0,0,4.84-1.55,14.21,14.21,0,0,1-3.32-4l2.27-1.17a13.42,13.42,0,0,0,3.32,4c3.48-2.18,4.47-4.43,4.47-4.65s-.26-.28-.51-.25h-9.59v-2.44H202.2l1.39,1.36a15.06,15.06,0,0,1-3.32,5.6l-1.9,1.65a18.34,18.34,0,0,0,6.84,1.26ZM194.1,175.87c-.31,0-.31.12-.31,1.1a4.57,4.57,0,0,1-3.07,4.34l-1.49-2c1.3-.63,2.25-1.13,2.25-3.1v-2l.13-.38.37-.13h7.22l.38.13.15.38v3.35l.16.79a1.24,1.24,0,0,0,.89.29,3.49,3.49,0,0,0,.95-.16c.09,0,.15-.22.15-.63l.07-1.36,2.18.35-.25,2.53a2.14,2.14,0,0,1-2,1.48H199.7a2.29,2.29,0,0,1-2.31-2.27v-2.35a.31.31,0,0,0-.35-.34Zm6.61-4.46a47.66,47.66,0,0,0,4.84,1.83L204,175.52a36.08,36.08,0,0,1-12.68-8l1.39-2.24,2.37,2.37a31.47,31.47,0,0,0,2.5-2.75l1.71,1.71-2.37,2.5,1.64,1.14,2.79-2.88,1.64,1.74-1.64,1.74Z"/><path class="cls-3" d="M108.77,149.71a6,6,0,0,1-4,3.09,6.09,6.09,0,0,1-5.11-.71,4.34,4.34,0,0,1-1.57-2.18l-.22-.64c0-.22-.07-.45-.11-.68l0-.34,0-.34a5.36,5.36,0,0,1,.06-.69,5.16,5.16,0,0,1,1.29-2.4,9.07,9.07,0,0,1,2.13-1.63,18.14,18.14,0,0,1,10.22-2,46.07,46.07,0,0,1,10.14,2.29c1.64.53,3.27,1.05,4.92,1.5a16.27,16.27,0,0,0,5,.61,13.33,13.33,0,0,0,4.86-1,5.53,5.53,0,0,0,3.23-3.33,11.71,11.71,0,0,0,.23-1.18c0-.41,0-.82,0-1.23a4.26,4.26,0,0,0-.89-2.19,5.72,5.72,0,0,0-4.18-2.26,4.17,4.17,0,0,0-4,2.39,3.45,3.45,0,0,0-.42,2.41,2.64,2.64,0,0,0,1.62,1.84,2.73,2.73,0,0,1-1.76-1.8,3.64,3.64,0,0,1,.32-2.57,5.24,5.24,0,0,1,1.69-2,4.11,4.11,0,0,1,2.56-.74,6.24,6.24,0,0,1,4.68,2.36,5,5,0,0,1,1.08,2.5c0,.45.06.9.06,1.35a8.83,8.83,0,0,1-.22,1.35,6.17,6.17,0,0,1-3.62,3.91,14.1,14.1,0,0,1-5.18,1.09,16.83,16.83,0,0,1-5.24-.6c-1.68-.43-3.33-.95-5-1.46a44.21,44.21,0,0,0-9.91-2.34,19.24,19.24,0,0,0-5,.18,16.88,16.88,0,0,0-4.75,1.56,8.44,8.44,0,0,0-2,1.44,4.57,4.57,0,0,0-1.18,2,5.6,5.6,0,0,0-.07.59l0,.3,0,.3c0,.2,0,.4.07.6l.19.58a3.83,3.83,0,0,0,1.34,2,5.75,5.75,0,0,0,4.74.85,6.58,6.58,0,0,0,2.33-1A5.24,5.24,0,0,0,108.77,149.71Z"/><path class="cls-4" d="M171.59,149.71a5.15,5.15,0,0,0,1.73,1.86,6.58,6.58,0,0,0,2.33,1,5.75,5.75,0,0,0,4.74-.85,3.83,3.83,0,0,0,1.34-2l.19-.58c0-.2.05-.4.07-.6l0-.3,0-.3a5.6,5.6,0,0,0-.07-.59,4.57,4.57,0,0,0-1.18-2,8.65,8.65,0,0,0-2-1.44A16.84,16.84,0,0,0,174,142.3a19.16,19.16,0,0,0-5-.18,44.21,44.21,0,0,0-9.91,2.34c-1.64.51-3.29,1-5,1.46a16.86,16.86,0,0,1-5.24.6,14.1,14.1,0,0,1-5.18-1.09,6.17,6.17,0,0,1-3.62-3.91,8.83,8.83,0,0,1-.22-1.35c0-.45,0-.9.06-1.35a5,5,0,0,1,1.08-2.5,6.24,6.24,0,0,1,4.68-2.36,4.11,4.11,0,0,1,2.56.74,5.24,5.24,0,0,1,1.69,2,3.64,3.64,0,0,1,.32,2.57,2.73,2.73,0,0,1-1.76,1.8,2.64,2.64,0,0,0,1.62-1.84,3.45,3.45,0,0,0-.42-2.41,4.17,4.17,0,0,0-4-2.39,5.7,5.7,0,0,0-4.18,2.26,4.26,4.26,0,0,0-.89,2.19c0,.41,0,.82,0,1.23a11.71,11.71,0,0,0,.23,1.18,5.53,5.53,0,0,0,3.23,3.33,13.33,13.33,0,0,0,4.86,1,16.31,16.31,0,0,0,5-.61c1.65-.45,3.28-1,4.92-1.5a46.07,46.07,0,0,1,10.14-2.29,18.14,18.14,0,0,1,10.22,2,9.07,9.07,0,0,1,2.13,1.63,5.16,5.16,0,0,1,1.29,2.4,5.36,5.36,0,0,1,.06.69l0,.34,0,.34c0,.23-.06.46-.11.68l-.22.64a4.34,4.34,0,0,1-1.57,2.18,6.09,6.09,0,0,1-5.11.71A6,6,0,0,1,171.59,149.71Z"/><polygon class="cls-5" points="0.18 205.47 35.18 205.12 70.18 204.91 140.18 204.74 210.18 204.91 245.18 205.11 280.18 205.47 245.18 205.84 210.18 206.04 140.18 206.22 70.18 206.04 35.18 205.84 0.18 205.47"/><path class="cls-6" d="M103.17,210.8l-1.07.15c-.7.1-1.7.27-2.93.5-2.46.45-5.82,1.25-9.53,1.9-.93.18-1.84.3-2.72.44s-1.71.21-2.52.26c-1.63.08-3.1.07-4.34,0l-1.67-.12-1.26-.16-1.07-.17,1,.34,1.24.33c.49.1,1,.22,1.67.32a30.36,30.36,0,0,0,4.42.37,19.93,19.93,0,0,0,2.63-.14c.9-.11,1.84-.22,2.78-.4A79.38,79.38,0,0,0,99.31,212Z"/><path class="cls-7" d="M136,225a8.22,8.22,0,0,1-1.07,2.09,8.75,8.75,0,0,1-1.38,1.55,10.34,10.34,0,0,1-1.53,1.12l-.41.23-.21.11-.22.1-.44.19-.22.09-.22.07a8.83,8.83,0,0,1-1.8.41,12,12,0,0,1-1.79.1,13.57,13.57,0,0,1-5-1.08c-.25-.1-.5-.22-.74-.33l-.37-.19-.35-.2-.35-.2-.34-.22-.16-.11-.16-.11-.33-.24-.3-.25-.16-.12-.14-.13-.29-.26-.28-.28-.26-.28-.25-.29a6.62,6.62,0,0,1-.46-.62,7.63,7.63,0,0,1-.74-1.3c0-.11-.1-.23-.14-.34l-.07-.17-.06-.18-.11-.34c0-.12,0-.24-.08-.36l0-.17,0-.18,0-.35,0-.36v-.35c0-.11,0-.23,0-.34l0-.34,0-.17,0-.17.06-.33.09-.32a.94.94,0,0,1,0-.16l.05-.15c0-.11.08-.21.11-.31s.09-.19.13-.29,0-.1.07-.14l.07-.14.15-.27c.06-.09.11-.18.17-.26l.08-.13.09-.12.18-.24.2-.22a3.87,3.87,0,0,1,.4-.41,5.67,5.67,0,0,1,1.8-1.12,5.24,5.24,0,0,1,1.8-.36,5,5,0,0,1,1.51.19l.16,0,.16.06.29.11.5.24.41.25.12.1a2.09,2.09,0,1,1-1.07,0L123,217l-.27-.06-.14,0-.15,0a4.84,4.84,0,0,0-1.33,0,4.91,4.91,0,0,0-2.93,1.46,3.65,3.65,0,0,0-.31.36,1.39,1.39,0,0,0-.15.19,1.43,1.43,0,0,0-.14.2l-.07.1-.07.11-.12.22-.11.23-.06.12a.61.61,0,0,1-.05.12l-.09.24-.08.25,0,.13s0,.08,0,.13l-.06.26,0,.27,0,.13V222a.76.76,0,0,1,0,.15v.14l0,.28.06.28c0,.05,0,.1,0,.14l0,.15c0,.09,0,.18.08.28l.1.28,0,.14.06.14.13.28A8.66,8.66,0,0,0,121,228l.32.17.33.16.67.29a14.56,14.56,0,0,0,1.41.47,12.16,12.16,0,0,0,3,.42,10,10,0,0,0,1.54-.09,7.73,7.73,0,0,0,1.51-.36L130,229l.18-.07a3.68,3.68,0,0,0,.35-.15l.17-.09a.76.76,0,0,0,.18-.09l.34-.19a8,8,0,0,0,1.29-.94,7.44,7.44,0,0,0,1.14-1.27,7,7,0,0,0,.88-1.7,7.75,7.75,0,0,0,.42-2.1,5.56,5.56,0,0,0,0-.58c0-.19,0-.39,0-.58a10.4,10.4,0,0,0-.18-1.21,9.76,9.76,0,0,0-.86-2.42,9.87,9.87,0,0,0-.68-1.17c-.13-.19-.26-.39-.41-.57l-.22-.27-.23-.27a2.85,2.85,0,0,0-.23-.26l-.25-.26-.54-.52a3.45,3.45,0,0,0-.28-.26l-.28-.25-.29-.25a3.36,3.36,0,0,0-.29-.24l-.6-.48c-.2-.16-.42-.3-.63-.45a7.31,7.31,0,0,0-.65-.43l-.33-.21-.34-.19-.35-.19a3.84,3.84,0,0,0-.35-.18l-.72-.35-.74-.3a3,3,0,0,0-.39-.14l-.38-.14a26.77,26.77,0,0,0-3.23-.84l-.84-.16-.42-.07-.42-.07-.86-.12-.86-.11-.87-.11-.87-.09-.87-.08-.44,0-.43,0-.88,0h-.87c-.59,0-1.18,0-1.76,0l-.89,0-.88.06c-.58.05-1.17.1-1.76.17-1.17.13-2.34.31-3.5.49s-2.32.39-3.46.61l-3.41.65-3.34.63c-2.19.41-4.32.84-6.39,1.15-1,.16-2,.28-3,.37s-2,.12-2.91.11a20.14,20.14,0,0,1-5.22-.71,11.67,11.67,0,0,1-2.17-.85,5.49,5.49,0,0,1-1.66-1.28,3,3,0,0,1-.75-1.68c0-.07,0-.14,0-.21v-.21a3,3,0,0,1,.25-1.11,2.71,2.71,0,0,1,.73-1,1.47,1.47,0,0,1,.84-.35,1.16,1.16,0,0,1,.55.08l.13.06,0,0a1.35,1.35,0,0,1-.18,0,1.4,1.4,0,0,0-.53,0,1.44,1.44,0,0,0-.77.37,2.73,2.73,0,0,0-.82,1.64c0,.12,0,.24,0,.37s0,.13,0,.2l0,.19a3,3,0,0,0,.24.79,2.88,2.88,0,0,0,.5.73,5.24,5.24,0,0,0,1.6,1.16,11.49,11.49,0,0,0,2.12.76,20,20,0,0,0,5.11.57c.93,0,1.88-.07,2.86-.18s2-.25,3-.43c2-.35,4.15-.82,6.34-1.28l3.33-.69c1.12-.24,2.25-.49,3.4-.72s2.3-.47,3.47-.68,2.35-.41,3.54-.56c.6-.08,1.19-.14,1.79-.2.3,0,.6-.06.9-.08s.61-.06.91-.07c.6,0,1.2-.07,1.81-.07h.9l.91,0h.45l.45,0,.9.06.89.09c.29,0,.59,0,.88.09l.89.1.87.11.44.06.44.07.87.15a26.11,26.11,0,0,1,3.41.84l.41.14.41.14.81.32.79.36.38.19.38.2c.13.07.26.13.38.21l.36.22c.24.15.48.29.71.45l.69.48.65.51.31.25.31.27.31.26.29.27.58.54.28.29.28.3.26.3.26.31c.16.2.31.42.47.63a14.08,14.08,0,0,1,.79,1.33,13.84,13.84,0,0,1,.61,1.38,12.48,12.48,0,0,1,.41,1.41A9.73,9.73,0,0,1,136,225Z"/><path class="cls-8" d="M177.19,210.8l1.07.15c.7.1,1.69.27,2.92.5,2.47.45,5.82,1.25,9.54,1.9.93.18,1.84.3,2.72.44s1.71.21,2.52.26c1.63.08,3.1.07,4.34,0l1.67-.12,1.26-.16,1.07-.17-1,.34c-.33.1-.75.2-1.24.33s-1,.22-1.66.32a30.36,30.36,0,0,1-4.42.37,19.84,19.84,0,0,1-2.63-.14c-.9-.11-1.84-.22-2.78-.4a79.38,79.38,0,0,1-9.48-2.45Z"/><path class="cls-9" d="M144.32,225a8.58,8.58,0,0,0,1.08,2.09,8.75,8.75,0,0,0,1.38,1.55,10.34,10.34,0,0,0,1.53,1.12l.41.23.21.11.22.1.43.19.22.09.23.07a8.83,8.83,0,0,0,1.8.41,12,12,0,0,0,1.79.1,14,14,0,0,0,3.4-.52,13.25,13.25,0,0,0,1.57-.56c.26-.1.51-.22.75-.33l.36-.19.36-.2.35-.2.33-.22.17-.11.16-.11.32-.24.31-.25.16-.12.14-.13.29-.26.28-.28.26-.28.25-.29c.16-.21.32-.4.46-.62a7.63,7.63,0,0,0,.74-1.3c.05-.11.1-.23.14-.34l.07-.17.06-.18c0-.11.07-.23.11-.34s.05-.24.08-.36l0-.17,0-.18.05-.35,0-.36v-.17a1.09,1.09,0,0,0,0-.18v-.34l0-.34,0-.17,0-.17-.06-.33-.09-.32s0-.11,0-.16l-.06-.15c0-.11-.07-.21-.1-.31l-.13-.29-.07-.14-.07-.14-.15-.27c-.06-.09-.11-.18-.17-.26l-.08-.13-.09-.12-.18-.24-.2-.22a5.18,5.18,0,0,0-.4-.41,5.78,5.78,0,0,0-1.8-1.12,5.24,5.24,0,0,0-1.8-.36,5,5,0,0,0-1.51.19l-.16,0-.16.06-.29.11-.5.24-.41.25-.12.1a2.09,2.09,0,1,0,1.07,0l.14-.05.28-.06.14,0,.15,0a4.76,4.76,0,0,1,1.32,0,4.9,4.9,0,0,1,2.94,1.46,3.65,3.65,0,0,1,.31.36,1.39,1.39,0,0,1,.15.19l.14.2.07.1.06.11.13.22.11.23.06.12s0,.08,0,.12l.1.24.08.25,0,.13a.5.5,0,0,1,0,.13l.06.26,0,.27,0,.13v.14l0,.28v.56a2.4,2.4,0,0,0,0,.28l-.06.28a.58.58,0,0,1,0,.14l0,.15-.08.28-.1.28-.05.14-.06.14-.13.28a8.66,8.66,0,0,1-3.73,3.68l-.32.17-.33.16-.67.29c-.45.18-.93.33-1.41.47a12.16,12.16,0,0,1-3,.42,10.15,10.15,0,0,1-1.55-.09,7.8,7.8,0,0,1-1.5-.36l-.18-.06-.18-.07a3.68,3.68,0,0,1-.35-.15l-.18-.09-.17-.09-.35-.19a8.43,8.43,0,0,1-1.28-.94,7.44,7.44,0,0,1-1.14-1.27,6.65,6.65,0,0,1-.88-1.7,7.75,7.75,0,0,1-.42-2.1,5.56,5.56,0,0,1,0-.58,5.62,5.62,0,0,1,0-.58,10.4,10.4,0,0,1,.18-1.21,9.76,9.76,0,0,1,.86-2.42,9.87,9.87,0,0,1,.68-1.17c.13-.19.26-.39.41-.57l.21-.27.23-.27.24-.26.25-.26.54-.52a3.45,3.45,0,0,1,.28-.26l.28-.25.28-.25.3-.24.6-.48c.2-.16.42-.3.62-.45a7.48,7.48,0,0,1,.66-.43l.33-.21.34-.19.34-.19.36-.18.72-.35.74-.3a3.57,3.57,0,0,1,.38-.14l.39-.14a26.77,26.77,0,0,1,3.23-.84l.83-.16.43-.07.42-.07.86-.12.86-.11.87-.11.87-.09.87-.08.43,0,.44,0,.87,0h.88c.59,0,1.18,0,1.76,0l.88,0,.89.06c.58.05,1.17.1,1.76.17,1.17.13,2.34.31,3.5.49s2.32.39,3.46.61l3.41.65,3.34.63c2.19.41,4.32.84,6.39,1.15,1,.16,2.05.28,3,.37s2,.12,2.92.11a20.14,20.14,0,0,0,5.22-.71,11.67,11.67,0,0,0,2.17-.85,5.49,5.49,0,0,0,1.66-1.28,3,3,0,0,0,.75-1.68l0-.21v-.21a2.58,2.58,0,0,0,0-.4,3,3,0,0,0-.21-.71,2.71,2.71,0,0,0-.73-1,1.47,1.47,0,0,0-.84-.35,1.16,1.16,0,0,0-.55.08l-.13.06,0,0a1.35,1.35,0,0,0,.18,0,1.37,1.37,0,0,1,1.29.34,2.51,2.51,0,0,1,.65,1,2.36,2.36,0,0,1,.18.67c0,.12,0,.24,0,.37s0,.13,0,.2l0,.19a3,3,0,0,1-.24.79,2.88,2.88,0,0,1-.5.73,5.24,5.24,0,0,1-1.6,1.16,11.49,11.49,0,0,1-2.12.76,20,20,0,0,1-5.11.57c-.93,0-1.88-.07-2.86-.18s-2-.25-3-.43c-2-.35-4.15-.82-6.35-1.28l-3.32-.69c-1.12-.24-2.25-.49-3.4-.72s-2.3-.47-3.47-.68-2.35-.41-3.54-.56c-.6-.08-1.2-.14-1.79-.2-.3,0-.61-.06-.91-.08s-.6-.06-.9-.07c-.6,0-1.2-.07-1.81-.07h-.9l-.91,0h-.45l-.45,0-.9.06-.89.09c-.3,0-.59,0-.88.09l-.89.1-.87.11-.44.06-.44.07-.87.15a26.11,26.11,0,0,0-3.41.84l-.41.14-.41.14-.81.32-.79.36-.38.19-.38.2c-.13.07-.26.13-.38.21l-.36.22c-.24.15-.49.29-.71.45l-.69.48-.65.51-.31.25-.31.27-.31.26-.29.27-.58.54-.28.29-.28.3-.27.3c-.08.1-.16.21-.25.31s-.31.42-.47.63a14.08,14.08,0,0,0-.79,1.33,13.84,13.84,0,0,0-.61,1.38,12.48,12.48,0,0,0-.41,1.41A9.82,9.82,0,0,0,144.32,225Z"/><path class="cls-10" d="M140.24,248.37c.41-.92.66-1.47.89-2a13.37,13.37,0,0,0,.17-9.82c-.68-2-.74-4.24-1.32-6.39-.33,2-.65,3.9-1,5.85a8.14,8.14,0,0,1-.52,2.42c-1.71,3.11.27,5.84.81,8.71C139.33,247.42,139.7,247.68,140.24,248.37Z"/><path class="cls-11" d="M134.41,240.56A19,19,0,0,0,138,227.33a15.55,15.55,0,0,1-3.58,9.72c-.64.74-.35,2.27-.49,3.44Z"/><path class="cls-12" d="M142.17,228.25a20.24,20.24,0,0,0,3.8,12.29l.52-.08c-.16-1.17.08-2.65-.55-3.44a15.12,15.12,0,0,1-3.38-8.12C142.54,228.73,142.37,228.58,142.17,228.25Z"/><path class="cls-13" d="M78.15,68.57a5,5,0,0,0-7.14,0L68.37,71.2l-2.63-2.63a5,5,0,0,0-7.15,0h0a5.05,5.05,0,0,0,0,7.14l9.78,9.78,9.78-9.78a5,5,0,0,0,0-7.14Z"/><path class="cls-14" d="M202.21,68.57a5,5,0,0,0,0,7.14L212,85.49l9.78-9.78a5.05,5.05,0,0,0,0-7.14h0a5,5,0,0,0-7.15,0L212,71.2l-2.64-2.63a5,5,0,0,0-7.14,0Z"/><path class="cls-15" d="M173.7,33.93H158.28a32.6,32.6,0,0,1,1.89,2.89H173.7A3.18,3.18,0,0,1,176.88,40v77.17a3.18,3.18,0,0,1-3.18,3.18H130.17a3.18,3.18,0,0,1-3.18-3.18V87.46c-1-.11-1.94-.25-2.89-.44v30.15a6.07,6.07,0,0,0,6.07,6.07H173.7a6.07,6.07,0,0,0,6.07-6.07V40A6.07,6.07,0,0,0,173.7,33.93Z"/><path class="cls-16" d="M130.55,113.11h42.77a1.44,1.44,0,0,0,1.44-1.44V45.5a1.44,1.44,0,0,0-1.44-1.44h-10c.28.94.54,1.91.74,2.89h7.78v63.27H132V87.65c-.36,0-.72.06-1.08.06-.61,0-1.21-.06-1.81-.09v24A1.44,1.44,0,0,0,130.55,113.11Z"/><path class="cls-17" d="M142.93,106.24h17.72a5.88,5.88,0,1,0,0-11.75H142.93a5.88,5.88,0,0,0,0,11.75Zm0-8.86h17.72a3,3,0,1,1,0,6H142.93a3,3,0,1,1,0-6Z"/><path class="cls-18" d="M161.24,53.75a30.35,30.35,0,0,0-30.31-30.31c-19.34,0-33.23,17.87-29.83,35.66a30.35,30.35,0,0,0,27.24,24.84C145,86.06,161.24,71.94,161.24,53.75Zm-14,8-5.58-3L140.09,47l5-4.5,7.58,2.9,1.52,11.38Zm-3.91-21.11-5,4.51-11.14-2-3-6.66,4.85-6.3L141,32.89ZM122,37.56,124.84,44l-5.55,10.34-7,.3-3.87-6.58,5.5-10.51Zm-9.44,19.62,7.18-.31,7.76,8.1-1.8,6.56L118,73.33l-8-8.54Zm15.61,14.93,1.77-6.45,10.15-4.9L146.17,64l-.46,8.08-11.24,5ZM158.7,53.75a28,28,0,0,1-.49,5.21l-1.46-2.14-1.52-11.41,1.13-2.81A27.62,27.62,0,0,1,158.7,53.75ZM130.93,26a27.59,27.59,0,0,1,13.54,3.53l-2.89.92L129.7,27.7l-1.9-1.54A27,27,0,0,1,130.93,26Zm-19.05,7.59-.27,3-5,9.6-2.9,2.21A27.79,27.79,0,0,1,111.88,33.57ZM106,66l2.29.75L116.05,75l.41,2.47A27.91,27.91,0,0,1,106,66Zm27.84,15.42,1.65-1.93,11.36-5.06h2.66A27.64,27.64,0,0,1,133.83,81.37Z"/></svg>