<svg id="圖層_1" data-name="圖層 1" xmlns="http://www.w3.org/2000/svg" xmlns:xlink="http://www.w3.org/1999/xlink" viewBox="0 0 280 252"><defs><style>.cls-1{fill:#1c232f;}.cls-2{fill:url(#未命名漸層_9);}.cls-3{fill:url(#未命名漸層_9-5);}.cls-4{fill:url(#未命名漸層_9-6);}.cls-5{fill:url(#未命名漸層_9-7);}.cls-6{fill:url(#未命名漸層_9-8);}.cls-7{fill:url(#未命名漸層_9-9);}.cls-8{fill:url(#未命名漸層_9-10);}.cls-9{fill:url(#未命名漸層_9-11);}.cls-10{fill:url(#未命名漸層_9-12);}.cls-11{fill:url(#未命名漸層_9-13);}.cls-12{fill:url(#未命名漸層_9-14);}.cls-13{fill:url(#未命名漸層_9-15);}.cls-14{fill:url(#未命名漸層_9-16);}.cls-15{fill:url(#未命名漸層_9-17);}.cls-16{fill:url(#未命名漸層_9-18);}.cls-17{fill:url(#未命名漸層_9-19);}.cls-18,.cls-19,.cls-20,.cls-21,.cls-22,.cls-23,.cls-24,.cls-25,.cls-26,.cls-27,.cls-28,.cls-29,.cls-30{stroke-miterlimit:10;stroke-width:1.09px;}.cls-18{fill:url(#未命名漸層_9-20);stroke:url(#未命名漸層_9-21);}.cls-19{fill:url(#未命名漸層_9-22);stroke:url(#未命名漸層_9-23);}.cls-20{fill:url(#未命名漸層_9-24);stroke:url(#未命名漸層_9-25);}.cls-21{fill:url(#未命名漸層_9-26);stroke:url(#未命名漸層_9-27);}.cls-22{fill:url(#未命名漸層_9-28);stroke:url(#未命名漸層_9-29);}.cls-23{fill:url(#未命名漸層_9-30);stroke:url(#未命名漸層_9-31);}.cls-24{fill:url(#未命名漸層_9-32);stroke:url(#未命名漸層_9-33);}.cls-25{fill:url(#未命名漸層_9-34);stroke:url(#未命名漸層_9-35);}.cls-26{fill:url(#未命名漸層_9-36);stroke:url(#未命名漸層_9-37);}.cls-27{fill:url(#未命名漸層_9-38);stroke:url(#未命名漸層_9-39);}.cls-28{fill:url(#未命名漸層_9-40);stroke:url(#未命名漸層_9-41);}.cls-29{fill:url(#未命名漸層_9-42);stroke:url(#未命名漸層_9-43);}.cls-30{fill:url(#未命名漸層_9-44);stroke:url(#未命名漸層_9-45);}</style><linearGradient id="未命名漸層_9" x1="71.44" y1="179.54" x2="204.96" y2="179.54" gradientUnits="userSpaceOnUse"><stop offset="0.41" stop-color="#ffffbc"/><stop offset="0.54" stop-color="#f7eca3"/><stop offset="0.73" stop-color="#edd685"/><stop offset="0.84" stop-color="#e9ce7a"/><stop offset="0.88" stop-color="#e7cb78"/><stop offset="0.92" stop-color="#e1c074"/><stop offset="0.96" stop-color="#d8af6c"/><stop offset="0.99" stop-color="#cb9761"/><stop offset="1" stop-color="#c58d5c"/></linearGradient><linearGradient id="未命名漸層_9-5" x1="97.07" y1="143.51" x2="139.87" y2="143.51" xlink:href="#未命名漸層_9"/><linearGradient id="未命名漸層_9-6" x1="139.18" y1="143.51" x2="181.98" y2="143.51" xlink:href="#未命名漸層_9"/><linearGradient id="未命名漸層_9-7" x1="-0.47" y1="205.48" x2="279.53" y2="205.48" xlink:href="#未命名漸層_9"/><linearGradient id="未命名漸層_9-8" x1="75.41" y1="212.88" x2="102.52" y2="212.88" xlink:href="#未命名漸層_9"/><linearGradient id="未命名漸層_9-9" x1="71.04" y1="218.22" x2="135.89" y2="218.22" xlink:href="#未命名漸層_9"/><linearGradient id="未命名漸層_9-10" x1="176.53" y1="212.88" x2="203.64" y2="212.88" xlink:href="#未命名漸層_9"/><linearGradient id="未命名漸層_9-11" x1="143.17" y1="218.22" x2="208.02" y2="218.22" xlink:href="#未命名漸層_9"/><linearGradient id="未命名漸層_9-12" x1="137.14" y1="239.25" x2="141.5" y2="239.25" xlink:href="#未命名漸層_9"/><linearGradient id="未命名漸層_9-13" x1="133.23" y1="233.94" x2="137.42" y2="233.94" xlink:href="#未命名漸層_9"/><linearGradient id="未命名漸層_9-14" x1="141.52" y1="234.4" x2="145.84" y2="234.4" xlink:href="#未命名漸層_9"/><linearGradient id="未命名漸層_9-15" x1="128.35" y1="12.03" x2="154.43" y2="12.03" xlink:href="#未命名漸層_9"/><linearGradient id="未命名漸層_9-16" x1="70.45" y1="29.42" x2="92.52" y2="29.42" xlink:href="#未命名漸層_9"/><linearGradient id="未命名漸層_9-17" x1="38.91" y1="114.4" x2="60.98" y2="114.4" xlink:href="#未命名漸層_9"/><linearGradient id="未命名漸層_9-18" x1="221.8" y1="114.4" x2="243.87" y2="114.4" xlink:href="#未命名漸層_9"/><linearGradient id="未命名漸層_9-19" x1="190.26" y1="29.42" x2="212.33" y2="29.42" xlink:href="#未命名漸層_9"/><linearGradient id="未命名漸層_9-20" x1="93.15" y1="100.36" x2="133.56" y2="100.36" xlink:href="#未命名漸層_9"/><linearGradient id="未命名漸層_9-21" x1="92.61" y1="100.36" x2="134.11" y2="100.36" xlink:href="#未命名漸層_9"/><linearGradient id="未命名漸層_9-22" x1="76.3" y1="121.05" x2="101.34" y2="121.05" xlink:href="#未命名漸層_9"/><linearGradient id="未命名漸層_9-23" x1="75.75" y1="121.05" x2="101.89" y2="121.05" xlink:href="#未命名漸層_9"/><linearGradient id="未命名漸層_9-24" x1="75.55" y1="107.45" x2="77.92" y2="107.45" xlink:href="#未命名漸層_9"/><linearGradient id="未命名漸層_9-25" x1="75.01" y1="107.45" x2="78.46" y2="107.45" xlink:href="#未命名漸層_9"/><linearGradient id="未命名漸層_9-26" x1="70.76" y1="109.8" x2="105.63" y2="109.8" xlink:href="#未命名漸層_9"/><linearGradient id="未命名漸層_9-27" x1="70.21" y1="109.8" x2="106.17" y2="109.8" xlink:href="#未命名漸層_9"/><linearGradient id="未命名漸層_9-28" x1="151.18" y1="77.02" x2="202.41" y2="77.02" xlink:href="#未命名漸層_9"/><linearGradient id="未命名漸層_9-29" x1="150.64" y1="77.02" x2="202.95" y2="77.02" xlink:href="#未命名漸層_9"/><linearGradient id="未命名漸層_9-30" x1="197.88" y1="99.97" x2="202.27" y2="99.97" xlink:href="#未命名漸層_9"/><linearGradient id="未命名漸層_9-31" x1="197.33" y1="99.97" x2="202.81" y2="99.97" xlink:href="#未命名漸層_9"/><linearGradient id="未命名漸層_9-32" x1="147.48" y1="61.19" x2="153.29" y2="61.19" xlink:href="#未命名漸層_9"/><linearGradient id="未命名漸層_9-33" x1="146.94" y1="61.19" x2="153.83" y2="61.19" xlink:href="#未命名漸層_9"/><linearGradient id="未命名漸層_9-34" x1="137.95" y1="80.8" x2="211.86" y2="80.8" xlink:href="#未命名漸層_9"/><linearGradient id="未命名漸層_9-35" x1="137.41" y1="80.8" x2="212.4" y2="80.8" xlink:href="#未命名漸層_9"/><linearGradient id="未命名漸層_9-36" x1="154.95" y1="54.76" x2="158.69" y2="54.76" xlink:href="#未命名漸層_9"/><linearGradient id="未命名漸層_9-37" x1="154.4" y1="54.76" x2="159.23" y2="54.76" xlink:href="#未命名漸層_9"/><linearGradient id="未命名漸層_9-38" x1="165.56" y1="77.02" x2="188.03" y2="77.02" xlink:href="#未命名漸層_9"/><linearGradient id="未命名漸層_9-39" x1="165.02" y1="77.02" x2="188.57" y2="77.02" xlink:href="#未命名漸層_9"/><linearGradient id="未命名漸層_9-40" x1="116.18" y1="91.05" x2="162.08" y2="91.05" xlink:href="#未命名漸層_9"/><linearGradient id="未命名漸層_9-41" x1="115.63" y1="91.05" x2="162.63" y2="91.05" xlink:href="#未命名漸層_9"/><linearGradient id="未命名漸層_9-42" x1="122.05" y1="107.51" x2="156.33" y2="107.51" xlink:href="#未命名漸層_9"/><linearGradient id="未命名漸層_9-43" x1="121.51" y1="107.51" x2="156.87" y2="107.51" xlink:href="#未命名漸層_9"/><linearGradient id="未命名漸層_9-44" x1="120.87" y1="88.02" x2="122.45" y2="88.02" xlink:href="#未命名漸層_9"/><linearGradient id="未命名漸層_9-45" x1="120.32" y1="88.02" x2="122.99" y2="88.02" xlink:href="#未命名漸層_9"/></defs><title>icon</title><path class="cls-1" d="M73.75,191.05c.79,0,1.55,0,2.31,0,5.18,0,9.3-.57,12.33-1.71-1.42-1.33-3.51-3.06-6.17-5.09a35.81,35.81,0,0,1-6.35,1.58l-1-2.62c5.86-.7,10-2.69,12.44-6a52.92,52.92,0,0,1-15.06,3.41l-.79-2.91a41.88,41.88,0,0,0,13-2.08,78.21,78.21,0,0,0-6.55-4.59l-3.7,1.08-1.17-2.63c4.56-.79,7.78-2.4,9.68-4.74l2.91,1-.28.32H96.11L98,167.67a24.52,24.52,0,0,1-4.17,5.26,34.17,34.17,0,0,1-6.43,4.23l2.6.76-.38.67h8.89l1.74,1A15.32,15.32,0,0,1,97,186.34a20.86,20.86,0,0,1-5.91,4.74c-3.54,1.8-9.08,2.82-16.51,2.94ZM83,171.31c1.58,1.08,3,2.15,4.24,3.17a18.33,18.33,0,0,0,6.45-5.16.64.64,0,0,0,0-.25c0-.16-.07-.26-.19-.26h-11l-1.68,1.05Zm4.12,13.51c1.42,1.17,2.72,2.28,3.86,3.35a14.15,14.15,0,0,0,6-6.77s0,0,0-.06-.1-.06-.32-.06H87.44A19.56,19.56,0,0,1,84.88,183Z"/><path class="cls-1" d="M123,177.1h-6.11v3.23a16,16,0,0,1-.5,3.7l-.51,1.48a16.67,16.67,0,0,1-8.35,8.42l-1.86-2.41c7.62-3,8.35-8.31,8.41-11.19V177.1h-7.78v-2.69h28.47v2.69h-9v12.21a1.59,1.59,0,0,0,1.56,1.61h3.73a1.12,1.12,0,0,0,1.14-1v-4.62l2.81.35c-.06,4.14-.31,6.52-.76,7a2.85,2.85,0,0,1-2,1.11H125.8a3.11,3.11,0,0,1-2.81-2.85Zm-14.11-10.94h23.41v2.68H108.88Z"/><path class="cls-1" d="M140.57,192.54a26.51,26.51,0,0,0,4.21-5.54l-3.8-3a1.47,1.47,0,0,1-.19-.73,4,4,0,0,1,.16-.92,72.58,72.58,0,0,0,2.12-9.83H141v-2.69h2.53l.48-4.78,2.65.32-.41,4.46h3.89c.35,0,.51.25.51.66v.13A51.17,51.17,0,0,1,148,186.08l3,2.34-1.39,2.35-2.72-2.12a23.53,23.53,0,0,1-4,5.34Zm5.31-8.1A39.76,39.76,0,0,0,148,172.55h-2.12a72.73,72.73,0,0,1-2.15,9.8c0,.25,0,.29.26.6Zm22.5,9.84c-4.5-1.27-7.6-3.45-9.24-6.55-1.43,2.81-4.34,5-8.67,6.55l-1.33-2.41c4.53-1.23,7.25-3.22,8-5.91h-6.84V183.4h7.19v-2.88h-4.88c-.47,0-.69-.26-.69-.73V168h2.56v9.46c0,.32.16.48.44.48h12.21c.45,0,.7.22.7.66v4.78h2V186h-9c1.55,3.1,4.43,5,9,5.94Zm-.7-18.63c0,.22-.13.34-.38.34H156.45a.31.31,0,0,1-.35-.34v-9.53a.31.31,0,0,1,.35-.34H167.3c.25,0,.38.12.38.34Zm-2.56-7.44h-6.49l-.09.1v5.12l.09.13h6.49c.09,0,.12,0,.12-.13v-5.12Zm-5,12.31v2.88h5.22v-2.47c0-.26-.16-.41-.48-.41Z"/><path class="cls-1" d="M183.2,180.26,176,181.34a16.86,16.86,0,0,0-.69-2.5l2.15-.35a31.12,31.12,0,0,0,2.4-3.41,23.21,23.21,0,0,0-4.68-3.2l1-2.18a3.91,3.91,0,0,1,1.24.66,55.84,55.84,0,0,0,2.21-5.53l2.25,1a50.58,50.58,0,0,1-2.6,5.82l1.68,1.27a21.3,21.3,0,0,0,1.65-4.62l2.37.6c-.38,2.24-2,5.31-4.65,9.14l2.28-.35-.38-1.55,2.4-.44a44.7,44.7,0,0,1,1.08,5.63l-2.38.22Zm20.22,12.91a27.38,27.38,0,0,1-12.12-5.63v6.39h-2.56v-6.26a33.68,33.68,0,0,1-11.8,5.5l-1.2-2.5a33.89,33.89,0,0,0,11.73-5H175.61v-2.43h13.13v-2.44H186.3c-.19,0-.28-.13-.28-.35V167.64c0-.22.09-.31.28-.31h2.06l.82-2.5,2.28.85-.57,1.65h2.4c.22,0,.35.09.35.31v12.78a.32.32,0,0,1-.35.35h-2v2.44h13.29v2.43H192.72c2.82,2.4,5.73,4.15,11.87,5Zm-15.09-20.28h3v-3.16l-.12-.09h-2.79l-.09.09Zm3,2.31h-3v3.1l.09.13h2.79c.09,0,.12,0,.12-.13Zm10.95,4.94-7.75.91a13.86,13.86,0,0,0-.64-2.49l1.9-.23A29.78,29.78,0,0,0,198.2,175a21.83,21.83,0,0,0-4.46-2.87l1-2.22,1,.44a53,53,0,0,0,2.12-5.4l2.24.94a50.78,50.78,0,0,1-2.43,5.73l1.71,1.27a21.64,21.64,0,0,0,1.48-4.12l2.38.57c-.42,2.15-1.93,5-4.5,8.58l2.72-.35-.66-1.78,2.34-.69,1.83,5.69-2.34.51Z"/><path class="cls-2" d="M73.75,191.05c.79,0,1.55,0,2.31,0,5.18,0,9.3-.57,12.33-1.71-1.42-1.33-3.51-3.06-6.17-5.09a35.81,35.81,0,0,1-6.35,1.58l-1-2.62c5.86-.7,10-2.69,12.44-6a52.92,52.92,0,0,1-15.06,3.41l-.79-2.91a41.88,41.88,0,0,0,13-2.08,78.21,78.21,0,0,0-6.55-4.59l-3.7,1.08-1.17-2.63c4.56-.79,7.78-2.4,9.68-4.74l2.91,1-.28.32H96.11L98,167.67a24.52,24.52,0,0,1-4.17,5.26,34.17,34.17,0,0,1-6.43,4.23l2.6.76-.38.67h8.89l1.74,1A15.32,15.32,0,0,1,97,186.34a20.86,20.86,0,0,1-5.91,4.74c-3.54,1.8-9.08,2.82-16.51,2.94ZM83,171.31c1.58,1.08,3,2.15,4.24,3.17a18.33,18.33,0,0,0,6.45-5.16.64.64,0,0,0,0-.25c0-.16-.07-.26-.19-.26h-11l-1.68,1.05Zm4.12,13.51c1.42,1.17,2.72,2.28,3.86,3.35a14.15,14.15,0,0,0,6-6.77s0,0,0-.06-.1-.06-.32-.06H87.44A19.56,19.56,0,0,1,84.88,183Z"/><path class="cls-2" d="M123,177.1h-6.11v3.23a16,16,0,0,1-.5,3.7l-.51,1.48a16.67,16.67,0,0,1-8.35,8.42l-1.86-2.41c7.62-3,8.35-8.31,8.41-11.19V177.1h-7.78v-2.69h28.47v2.69h-9v12.21a1.59,1.59,0,0,0,1.56,1.61h3.73a1.12,1.12,0,0,0,1.14-1v-4.62l2.81.35c-.06,4.14-.31,6.52-.76,7a2.85,2.85,0,0,1-2,1.11H125.8a3.11,3.11,0,0,1-2.81-2.85Zm-14.11-10.94h23.41v2.68H108.88Z"/><path class="cls-2" d="M140.57,192.54a26.51,26.51,0,0,0,4.21-5.54l-3.8-3a1.47,1.47,0,0,1-.19-.73,4,4,0,0,1,.16-.92,72.58,72.58,0,0,0,2.12-9.83H141v-2.69h2.53l.48-4.78,2.65.32-.41,4.46h3.89c.35,0,.51.25.51.66v.13A51.17,51.17,0,0,1,148,186.08l3,2.34-1.39,2.35-2.72-2.12a23.53,23.53,0,0,1-4,5.34Zm5.31-8.1A39.76,39.76,0,0,0,148,172.55h-2.12a72.73,72.73,0,0,1-2.15,9.8c0,.25,0,.29.26.6Zm22.5,9.84c-4.5-1.27-7.6-3.45-9.24-6.55-1.43,2.81-4.34,5-8.67,6.55l-1.33-2.41c4.53-1.23,7.25-3.22,8-5.91h-6.84V183.4h7.19v-2.88h-4.88c-.47,0-.69-.26-.69-.73V168h2.56v9.46c0,.32.16.48.44.48h12.21c.45,0,.7.22.7.66v4.78h2V186h-9c1.55,3.1,4.43,5,9,5.94Zm-.7-18.63c0,.22-.13.34-.38.34H156.45a.31.31,0,0,1-.35-.34v-9.53a.31.31,0,0,1,.35-.34H167.3c.25,0,.38.12.38.34Zm-2.56-7.44h-6.49l-.09.1v5.12l.09.13h6.49c.09,0,.12,0,.12-.13v-5.12Zm-5,12.31v2.88h5.22v-2.47c0-.26-.16-.41-.48-.41Z"/><path class="cls-2" d="M183.2,180.26,176,181.34a16.86,16.86,0,0,0-.69-2.5l2.15-.35a31.12,31.12,0,0,0,2.4-3.41,23.21,23.21,0,0,0-4.68-3.2l1-2.18a3.91,3.91,0,0,1,1.24.66,55.84,55.84,0,0,0,2.21-5.53l2.25,1a50.58,50.58,0,0,1-2.6,5.82l1.68,1.27a21.3,21.3,0,0,0,1.65-4.62l2.37.6c-.38,2.24-2,5.31-4.65,9.14l2.28-.35-.38-1.55,2.4-.44a44.7,44.7,0,0,1,1.08,5.63l-2.38.22Zm20.22,12.91a27.38,27.38,0,0,1-12.12-5.63v6.39h-2.56v-6.26a33.68,33.68,0,0,1-11.8,5.5l-1.2-2.5a33.89,33.89,0,0,0,11.73-5H175.61v-2.43h13.13v-2.44H186.3c-.19,0-.28-.13-.28-.35V167.64c0-.22.09-.31.28-.31h2.06l.82-2.5,2.28.85-.57,1.65h2.4c.22,0,.35.09.35.31v12.78a.32.32,0,0,1-.35.35h-2v2.44h13.29v2.43H192.72c2.82,2.4,5.73,4.15,11.87,5Zm-15.09-20.28h3v-3.16l-.12-.09h-2.79l-.09.09Zm3,2.31h-3v3.1l.09.13h2.79c.09,0,.12,0,.12-.13Zm10.95,4.94-7.75.91a13.86,13.86,0,0,0-.64-2.49l1.9-.23A29.78,29.78,0,0,0,198.2,175a21.83,21.83,0,0,0-4.46-2.87l1-2.22,1,.44a53,53,0,0,0,2.12-5.4l2.24.94a50.78,50.78,0,0,1-2.43,5.73l1.71,1.27a21.64,21.64,0,0,0,1.48-4.12l2.38.57c-.42,2.15-1.93,5-4.5,8.58l2.72-.35-.66-1.78,2.34-.69,1.83,5.69-2.34.51Z"/><path class="cls-3" d="M108.11,149.71a5.92,5.92,0,0,1-4,3.09,6.07,6.07,0,0,1-5.1-.71,4.36,4.36,0,0,1-1.58-2.18l-.22-.64c0-.22-.07-.45-.1-.68l-.05-.34,0-.34c0-.23,0-.46.07-.69a5.16,5.16,0,0,1,1.29-2.4,9.07,9.07,0,0,1,2.13-1.63,18.14,18.14,0,0,1,10.22-2,46.19,46.19,0,0,1,10.14,2.29c1.64.53,3.27,1.05,4.91,1.5a16.37,16.37,0,0,0,5,.61,13.33,13.33,0,0,0,4.86-1,5.56,5.56,0,0,0,3.23-3.33,9.43,9.43,0,0,0,.22-1.18c0-.41,0-.82,0-1.23a4.35,4.35,0,0,0-.89-2.19,5.72,5.72,0,0,0-4.19-2.26,4.17,4.17,0,0,0-4,2.39,3.45,3.45,0,0,0-.42,2.41,2.65,2.65,0,0,0,1.61,1.84,2.73,2.73,0,0,1-1.76-1.8,3.64,3.64,0,0,1,.33-2.57,5.24,5.24,0,0,1,1.69-2,4.11,4.11,0,0,1,2.56-.74,6.24,6.24,0,0,1,4.67,2.36,5,5,0,0,1,1.09,2.5c0,.45.05.9.06,1.35a10.26,10.26,0,0,1-.22,1.35,6.17,6.17,0,0,1-3.62,3.91,14.14,14.14,0,0,1-5.18,1.09,16.83,16.83,0,0,1-5.24-.6c-1.68-.43-3.33-.95-5-1.46a44.34,44.34,0,0,0-9.91-2.34,19.22,19.22,0,0,0-5,.18,16.77,16.77,0,0,0-4.75,1.56,8.71,8.71,0,0,0-2,1.44,4.55,4.55,0,0,0-1.17,2,3.81,3.81,0,0,0-.07.59l0,.3,0,.3c0,.2,0,.4.07.6l.18.58a4,4,0,0,0,1.34,2,5.77,5.77,0,0,0,4.75.85,6.58,6.58,0,0,0,2.33-1A5.13,5.13,0,0,0,108.11,149.71Z"/><path class="cls-4" d="M170.94,149.71a5.07,5.07,0,0,0,1.73,1.86,6.61,6.61,0,0,0,2.32,1,5.77,5.77,0,0,0,4.75-.85,3.83,3.83,0,0,0,1.34-2l.19-.58c0-.2,0-.4.07-.6l0-.3,0-.3a5.6,5.6,0,0,0-.07-.59,4.57,4.57,0,0,0-1.18-2,8.65,8.65,0,0,0-2-1.44,16.84,16.84,0,0,0-4.76-1.56,19.16,19.16,0,0,0-5-.18,44.29,44.29,0,0,0-9.92,2.34c-1.64.51-3.29,1-5,1.46a16.9,16.9,0,0,1-5.24.6,14.15,14.15,0,0,1-5.19-1.09,6.16,6.16,0,0,1-3.61-3.91,10.29,10.29,0,0,1-.23-1.35c0-.45,0-.9.06-1.35a5.14,5.14,0,0,1,1.09-2.5A6.24,6.24,0,0,1,145,134a4.09,4.09,0,0,1,2.56.74,5.27,5.27,0,0,1,1.7,2,3.64,3.64,0,0,1,.32,2.57,2.73,2.73,0,0,1-1.76,1.8,2.61,2.61,0,0,0,1.61-1.84,3.45,3.45,0,0,0-.41-2.41,4.19,4.19,0,0,0-4-2.39,5.74,5.74,0,0,0-4.19,2.26,4.44,4.44,0,0,0-.89,2.19c0,.41,0,.82,0,1.23a9.46,9.46,0,0,0,.23,1.18,5.51,5.51,0,0,0,3.23,3.33,13.32,13.32,0,0,0,4.85,1,16.33,16.33,0,0,0,5-.61c1.64-.45,3.27-1,4.91-1.5a46.32,46.32,0,0,1,10.14-2.29,18.16,18.16,0,0,1,10.23,2,9.5,9.5,0,0,1,2.13,1.63,5.14,5.14,0,0,1,1.28,2.4,4,4,0,0,1,.07.69l0,.34,0,.34c0,.23-.06.46-.1.68l-.22.64a4.4,4.4,0,0,1-1.57,2.18,6.09,6.09,0,0,1-5.11.71A5.92,5.92,0,0,1,170.94,149.71Z"/><polygon class="cls-5" points="-0.47 205.47 34.53 205.12 69.53 204.91 139.53 204.74 209.53 204.91 244.53 205.11 279.53 205.47 244.53 205.84 209.53 206.04 139.53 206.22 69.53 206.04 34.53 205.84 -0.47 205.47"/><path class="cls-6" d="M102.52,210.8l-1.08.15c-.69.1-1.69.27-2.92.5-2.46.45-5.82,1.25-9.53,1.9-.93.18-1.84.3-2.72.44s-1.71.21-2.53.26c-1.62.08-3.1.07-4.33,0l-1.67-.12-1.26-.16-1.07-.17,1,.34,1.24.33c.49.1,1,.22,1.67.32a30.23,30.23,0,0,0,4.42.37,19.93,19.93,0,0,0,2.63-.14c.9-.11,1.83-.22,2.78-.4A79.15,79.15,0,0,0,98.65,212Z"/><path class="cls-7" d="M135.38,225a8.22,8.22,0,0,1-1.07,2.09,9.61,9.61,0,0,1-1.38,1.55,10.43,10.43,0,0,1-1.54,1.12l-.4.23-.21.11-.22.1-.44.19-.22.09-.22.07a9,9,0,0,1-1.8.41,12,12,0,0,1-1.79.1,14.19,14.19,0,0,1-3.41-.52,13.92,13.92,0,0,1-1.57-.56l-.75-.33-.36-.19-.35-.2-.35-.2-.34-.22-.16-.11-.17-.11-.32-.24-.31-.25-.15-.12-.15-.13-.29-.26-.27-.28-.26-.28c-.09-.1-.18-.19-.26-.29s-.32-.4-.46-.62a8.37,8.37,0,0,1-.74-1.3c0-.11-.09-.23-.14-.34l-.06-.17-.06-.18-.11-.34c0-.12-.06-.24-.08-.36l0-.17a1.13,1.13,0,0,1,0-.18l-.05-.35c0-.12,0-.24,0-.36v-.35c0-.11,0-.23,0-.34l0-.34,0-.17,0-.17.06-.33c0-.11.06-.21.08-.32s0-.11,0-.16l0-.15c0-.11.07-.21.11-.31s.09-.19.13-.29a.61.61,0,0,1,.07-.14l.07-.14.15-.27a2.33,2.33,0,0,1,.17-.26l.08-.13.09-.12.18-.24.19-.22a5.29,5.29,0,0,1,.41-.41,5.67,5.67,0,0,1,1.8-1.12,5.19,5.19,0,0,1,1.79-.36,5.06,5.06,0,0,1,1.52.19l.16,0,.15.06.29.11.51.24.4.25.13.1a2.09,2.09,0,1,1-1.07,0l-.15-.05-.27-.06-.14,0-.15,0a4.83,4.83,0,0,0-4.26,1.42,3.73,3.73,0,0,0-.32.36l-.15.19-.14.2a.36.36,0,0,1-.07.1l-.06.11-.12.22a2.4,2.4,0,0,0-.11.23l-.06.12,0,.12-.09.24-.08.25,0,.13,0,.13-.05.26,0,.27,0,.13V222a.76.76,0,0,0,0,.15v.14l0,.28a2.74,2.74,0,0,1,.05.28l0,.14,0,.15c0,.09,0,.18.08.28s.06.19.1.28l0,.14.06.14.12.28a8.74,8.74,0,0,0,3.74,3.68l.32.17.32.16.67.29c.46.18.93.33,1.42.47a12,12,0,0,0,3,.42,10,10,0,0,0,1.55-.09,7.9,7.9,0,0,0,1.51-.36l.18-.06.18-.07a3.68,3.68,0,0,0,.35-.15l.17-.09a.56.56,0,0,0,.17-.09l.35-.19a8.51,8.51,0,0,0,1.29-.94,7.89,7.89,0,0,0,1.14-1.27,7,7,0,0,0,.88-1.7,8.15,8.15,0,0,0,.42-2.1c0-.19,0-.38,0-.58s0-.39,0-.58a10.4,10.4,0,0,0-.18-1.21,11,11,0,0,0-.34-1.21,9.19,9.19,0,0,0-.52-1.21,11.47,11.47,0,0,0-.68-1.17c-.14-.19-.26-.39-.41-.57l-.22-.27-.23-.27a2,2,0,0,0-.24-.26l-.24-.26-.54-.52c-.1-.09-.18-.18-.28-.26l-.28-.25-.29-.25a3.36,3.36,0,0,0-.29-.24l-.6-.48c-.21-.16-.42-.3-.63-.45s-.43-.29-.65-.43l-.33-.21-.34-.19-.35-.19a3.84,3.84,0,0,0-.35-.18l-.72-.35-.75-.3a2.46,2.46,0,0,0-.38-.14l-.38-.14a27.78,27.78,0,0,0-3.23-.84l-.84-.16-.42-.07-.43-.07-.85-.12-.86-.11-.87-.11-.88-.09-.86-.08-.44,0-.43,0-.88,0h-.88c-.58,0-1.17,0-1.76,0l-.88,0c-.29,0-.59,0-.88.06-.59.05-1.18.1-1.76.17-1.17.13-2.34.31-3.5.49s-2.32.39-3.46.61l-3.41.65-3.34.63c-2.19.41-4.33.84-6.39,1.15-1,.16-2,.28-3,.37s-2,.12-2.91.11a20.14,20.14,0,0,1-5.22-.71,11.4,11.4,0,0,1-2.17-.85,5.42,5.42,0,0,1-1.67-1.28,3.33,3.33,0,0,1-.51-.81,2.81,2.81,0,0,1-.23-.87c0-.07,0-.14,0-.21a1.47,1.47,0,0,1,0-.21,2.6,2.6,0,0,1,0-.4,3,3,0,0,1,.22-.71,2.6,2.6,0,0,1,.73-1,1.47,1.47,0,0,1,.83-.35,1.2,1.2,0,0,1,.56.08l.13.06,0,0s-.07,0-.18,0a1.38,1.38,0,0,0-1.3.34,2.62,2.62,0,0,0-.65,1,2.74,2.74,0,0,0-.17.67,1.51,1.51,0,0,0,0,.37,1.34,1.34,0,0,0,0,.2l0,.19a2.65,2.65,0,0,0,.24.79,3.11,3.11,0,0,0,.49.73,5.28,5.28,0,0,0,1.61,1.16,11.49,11.49,0,0,0,2.12.76,20,20,0,0,0,5.11.57c.92,0,1.88-.07,2.85-.18s2-.25,3-.43c2-.35,4.15-.82,6.34-1.28l3.32-.69c1.12-.24,2.26-.49,3.4-.72s2.31-.47,3.48-.68,2.35-.41,3.54-.56c.59-.08,1.19-.14,1.79-.2.3,0,.6-.06.9-.08s.6-.06.9-.07c.61,0,1.21-.07,1.81-.07h.91l.91,0h.45l.45,0,.9.06.89.09c.29,0,.59,0,.88.09l.88.1.88.11.44.06.44.07.87.15a26.52,26.52,0,0,1,3.41.84l.41.14.41.14.81.32.79.36.38.19.38.2c.12.07.25.13.37.21l.37.22c.24.15.48.29.71.45l.68.48.66.51.31.25.31.27.31.26.29.27.58.54.28.29.28.3.26.3c.09.1.17.21.25.31s.32.42.47.63a12.34,12.34,0,0,1,.8,1.33,13.84,13.84,0,0,1,.61,1.38,12.48,12.48,0,0,1,.41,1.41A9.73,9.73,0,0,1,135.38,225Z"/><path class="cls-8" d="M176.53,210.8l1.08.15c.69.1,1.69.27,2.92.5,2.46.45,5.82,1.25,9.54,1.9.92.18,1.83.3,2.71.44s1.71.21,2.53.26c1.62.08,3.1.07,4.34,0l1.67-.12,1.25-.16,1.07-.17-1,.34-1.24.33c-.49.1-1,.22-1.67.32a30.21,30.21,0,0,1-4.41.37,20,20,0,0,1-2.64-.14c-.9-.11-1.83-.22-2.77-.4A78.87,78.87,0,0,1,180.4,212Z"/><path class="cls-9" d="M143.67,225a8.56,8.56,0,0,0,1.07,2.09,9.2,9.2,0,0,0,1.39,1.55,10.34,10.34,0,0,0,1.53,1.12l.41.23.21.11.21.1.44.19.22.09.23.07a8.68,8.68,0,0,0,1.8.41,12,12,0,0,0,1.79.1,14.11,14.11,0,0,0,3.4-.52,13.25,13.25,0,0,0,1.57-.56c.26-.1.5-.22.75-.33l.36-.19.36-.2.34-.2.34-.22.17-.11.16-.11.32-.24.31-.25.15-.12.15-.13.29-.26.27-.28c.1-.09.18-.19.27-.28l.25-.29c.16-.21.32-.4.46-.62a8.37,8.37,0,0,0,.74-1.3c.05-.11.09-.23.14-.34l.07-.17,0-.18c0-.11.08-.23.11-.34l.09-.36,0-.17,0-.18.05-.35c0-.12,0-.24,0-.36v-.69c0-.12,0-.23,0-.34v-.17l0-.17c0-.11,0-.22-.07-.33s-.05-.21-.08-.32,0-.11,0-.16l-.06-.15a2.83,2.83,0,0,0-.11-.31l-.13-.29-.06-.14-.08-.14-.15-.27-.16-.26-.08-.13-.1-.12-.18-.24-.19-.22c-.13-.15-.27-.28-.4-.41a5.9,5.9,0,0,0-1.8-1.12,5.29,5.29,0,0,0-1.8-.36,5,5,0,0,0-1.51.19l-.17,0-.15.06-.29.11-.5.24-.41.25-.13.1a2.1,2.1,0,1,0,1.07,0l.15-.05.28-.06.14,0,.14,0a4.84,4.84,0,0,1,1.33,0,5,5,0,0,1,1.5.43,4.75,4.75,0,0,1,1.43,1,3.73,3.73,0,0,1,.32.36l.15.19.14.2a.86.86,0,0,0,.07.1l.06.11.13.22.11.23.05.12a.61.61,0,0,1,0,.12l.1.24.07.25,0,.13,0,.13.06.26,0,.27v.27l0,.28v.42l0,.14,0,.28,0,.28,0,.14,0,.15-.07.28-.1.28,0,.14-.07.14-.12.28a8.69,8.69,0,0,1-3.74,3.68l-.32.17-.32.16-.67.29c-.45.18-.93.33-1.41.47a12.16,12.16,0,0,1-3,.42,10.08,10.08,0,0,1-1.55-.09,7.63,7.63,0,0,1-1.5-.36l-.19-.06-.17-.07-.36-.15-.17-.09a.7.7,0,0,1-.17-.09l-.35-.19a8.43,8.43,0,0,1-1.28-.94,7.44,7.44,0,0,1-1.14-1.27,6.65,6.65,0,0,1-.88-1.7,7.39,7.39,0,0,1-.42-2.1c0-.19,0-.38,0-.58s0-.39,0-.58A8.63,8.63,0,0,1,145,220a9.13,9.13,0,0,1,.34-1.21,10.68,10.68,0,0,1,.51-1.21,11.56,11.56,0,0,1,.69-1.17c.13-.19.26-.39.4-.57l.22-.27.23-.27.24-.26.25-.26.54-.52.27-.26.29-.25.28-.25c.1-.08.19-.17.29-.24l.6-.48.63-.45c.21-.16.43-.29.65-.43l.33-.21c.11-.07.23-.12.35-.19l.34-.19c.12-.06.23-.13.35-.18l.72-.35.75-.3a2.46,2.46,0,0,1,.38-.14l.39-.14a27.1,27.1,0,0,1,3.22-.84l.84-.16.42-.07.43-.07.85-.12.87-.11.87-.11.87-.09.87-.08.43,0,.44,0,.87,0h.88c.59,0,1.17,0,1.76,0l.88,0c.3,0,.59,0,.88.06.59.05,1.18.1,1.76.17,1.18.13,2.35.31,3.51.49s2.31.39,3.46.61l3.4.65,3.34.63c2.19.41,4.33.84,6.4,1.15,1,.16,2,.28,3,.37s2,.12,2.91.11a20.28,20.28,0,0,0,5.23-.71,11.3,11.3,0,0,0,2.16-.85,5.42,5.42,0,0,0,1.67-1.28,3.71,3.71,0,0,0,.52-.81,3.5,3.5,0,0,0,.23-.87v-.21a1.47,1.47,0,0,0,0-.21,2.6,2.6,0,0,0,0-.4,3,3,0,0,0-.21-.71,2.62,2.62,0,0,0-.74-1,1.44,1.44,0,0,0-.83-.35,1.13,1.13,0,0,0-.55.08l-.13.06,0,0a1.35,1.35,0,0,0,.18,0,1.37,1.37,0,0,1,1.29.34,2.51,2.51,0,0,1,.65,1,3.28,3.28,0,0,1,.18.67,2.26,2.26,0,0,1,0,.37,1.34,1.34,0,0,1,0,.2l0,.19a3.4,3.4,0,0,1-.24.79,2.88,2.88,0,0,1-.5.73,5.24,5.24,0,0,1-1.6,1.16,11.76,11.76,0,0,1-2.12.76,20.08,20.08,0,0,1-5.12.57c-.92,0-1.87-.07-2.85-.18s-2-.25-3-.43c-2-.35-4.15-.82-6.34-1.28l-3.32-.69c-1.12-.24-2.25-.49-3.4-.72s-2.3-.47-3.47-.68-2.35-.41-3.54-.56c-.6-.08-1.2-.14-1.8-.2-.3,0-.6-.06-.9-.08s-.6-.06-.9-.07c-.6,0-1.21-.07-1.81-.07H166l-.9,0h-.45l-.46,0-.9.06-.88.09c-.3,0-.59,0-.89.09l-.88.1-.88.11-.44.06-.43.07-.87.15a26.11,26.11,0,0,0-3.41.84l-.42.14-.41.14-.81.32-.78.36-.39.19-.38.2c-.12.07-.25.13-.37.21l-.36.22c-.25.15-.49.29-.71.45l-.69.48-.65.51-.32.25-.31.27-.3.26-.3.27-.57.54-.29.29c-.09.1-.19.2-.27.3l-.27.3c-.09.1-.17.21-.25.31s-.32.42-.47.63a14.2,14.2,0,0,0-.8,1.33,11.77,11.77,0,0,0-.6,1.38,9.37,9.37,0,0,0-.41,1.41A9.73,9.73,0,0,0,143.67,225Z"/><path class="cls-10" d="M139.59,248.37c.41-.92.66-1.47.89-2a13.37,13.37,0,0,0,.17-9.82c-.69-2-.74-4.24-1.32-6.39-.33,2-.65,3.9-1,5.85a7.84,7.84,0,0,1-.51,2.42c-1.71,3.11.26,5.84.8,8.71C138.68,247.42,139.05,247.68,139.59,248.37Z"/><path class="cls-11" d="M133.76,240.56a19.08,19.08,0,0,0,3.54-13.23,15.5,15.5,0,0,1-3.59,9.72c-.63.74-.34,2.27-.48,3.44Z"/><path class="cls-12" d="M141.52,228.25a20.17,20.17,0,0,0,3.79,12.29l.53-.08c-.16-1.17.07-2.65-.56-3.44a15.27,15.27,0,0,1-3.38-8.12C141.89,228.73,141.72,228.58,141.52,228.25Z"/><polygon class="cls-13" points="141.39 -0.37 145.42 7.79 154.43 9.1 147.91 15.46 149.45 24.43 141.39 20.2 133.33 24.43 134.87 15.46 128.35 9.1 137.36 7.79 141.39 -0.37"/><polygon class="cls-14" points="81.48 18.93 84.89 25.84 92.52 26.95 87 32.33 88.31 39.92 81.48 36.33 74.67 39.92 75.97 32.33 70.45 26.95 78.08 25.84 81.48 18.93"/><polygon class="cls-15" points="49.95 103.91 53.36 110.82 60.98 111.92 55.47 117.3 56.77 124.9 49.95 121.31 43.13 124.9 44.43 117.3 38.91 111.92 46.54 110.82 49.95 103.91"/><polygon class="cls-16" points="232.83 103.91 229.42 110.82 221.8 111.92 227.32 117.3 226.01 124.9 232.83 121.31 239.65 124.9 238.35 117.3 243.87 111.92 236.24 110.82 232.83 103.91"/><polygon class="cls-17" points="201.3 18.93 197.89 25.84 190.26 26.95 195.78 32.33 194.48 39.92 201.3 36.33 208.12 39.92 206.81 32.33 212.33 26.95 204.71 25.84 201.3 18.93"/><path class="cls-18" d="M132,121.89a24.85,24.85,0,1,1-16.8-46.15,1,1,0,1,0-.4-2,26.91,26.91,0,1,0,18.2,50,1,1,0,1,0-1-1.81Z"/><path class="cls-19" d="M92.27,127.36a16.88,16.88,0,0,0,8.56-2.33,1,1,0,0,0-1-1.79,14.8,14.8,0,0,1-21.47-7.82,1,1,0,1,0-2,.7A16.9,16.9,0,0,0,92.27,127.36Z"/><path class="cls-20" d="M77.62,108.35a10.82,10.82,0,0,1,.27-1.4,1,1,0,1,0-2-.5c-.13.53-.23,1.06-.31,1.6a1,1,0,0,0,.88,1.18h.15A1,1,0,0,0,77.62,108.35Z"/><path class="cls-21" d="M104,126a19.82,19.82,0,0,1-31.17-16.24A19.89,19.89,0,0,1,91.14,90,1,1,0,0,0,91,87.94a21.89,21.89,0,0,0,1.66,43.72,21.72,21.72,0,0,0,12.54-4,1,1,0,0,0,.25-1.44A1,1,0,0,0,104,126Z"/><path class="cls-22" d="M176.79,51.41A25.61,25.61,0,1,0,202.41,77,25.64,25.64,0,0,0,176.79,51.41Zm0,49.15A23.54,23.54,0,1,1,200.33,77,23.56,23.56,0,0,1,176.79,100.56Z"/><path class="cls-23" d="M200.38,97.92a30.45,30.45,0,0,1-2.24,2.82,1,1,0,1,0,1.55,1.38,33.59,33.59,0,0,0,2.39-3,1,1,0,1,0-1.7-1.19Z"/><path class="cls-24" d="M148,64.49a1,1,0,0,0,.55.16,1,1,0,0,0,.88-.49A31.68,31.68,0,0,1,153,59.47,1,1,0,0,0,153,58a1,1,0,0,0-1.47,0,33.5,33.5,0,0,0-3.85,5A1,1,0,0,0,148,64.49Z"/><path class="cls-25" d="M174.9,43.85a37,37,0,1,0,37,36.95A37,37,0,0,0,174.9,43.85Zm0,71.83A34.88,34.88,0,1,1,209.78,80.8,34.91,34.91,0,0,1,174.9,115.68Z"/><path class="cls-26" d="M156,56.4a1,1,0,0,0,.63-.22c.53-.4,1.07-.79,1.62-1.16a1,1,0,1,0-1.16-1.72c-.59.4-1.16.81-1.72,1.24A1,1,0,0,0,156,56.4Z"/><path class="cls-27" d="M180,75.39c4.08-1.14,7-4.35,7-8.13,0-4.72-4.6-8.56-10.25-8.56s-10.24,3.84-10.24,8.56c0,3.78,2.94,7,7,8.13-4.63,1.26-8,5.16-8,9.76,0,5.62,5,10.19,11.23,10.19S188,90.77,188,85.15C188,80.55,184.65,76.65,180,75.39Zm-12.64-8.13c0-4.26,4.22-7.73,9.41-7.73s9.42,3.47,9.42,7.73c0,4.08-3.87,7.44-8.76,7.71h-1.31C171.26,74.7,167.38,71.34,167.38,67.26Zm9.41,27.25c-5.73,0-10.4-4.2-10.4-9.36,0-5,4.32-9,9.75-9.34.44,0,.87,0,1.31,0,5.43.3,9.75,4.37,9.75,9.34C187.2,90.31,182.53,94.51,176.79,94.51Z"/><path class="cls-28" d="M161.48,117.54a30.05,30.05,0,0,1-14,3.4,30.49,30.49,0,0,1-8.39-59.8.41.41,0,1,0-.22-.79,31.31,31.31,0,1,0,23,57.93.42.42,0,1,0-.38-.74Z"/><path class="cls-29" d="M147.64,117.18a26.75,26.75,0,0,0,8.4-1.34.42.42,0,0,0,.27-.52.42.42,0,0,0-.53-.27,26,26,0,0,1-32.92-16.93.42.42,0,0,0-.52-.27.42.42,0,0,0-.27.52A26.66,26.66,0,0,0,147.64,117.18Z"/><path class="cls-30" d="M122.13,83.73a.41.41,0,0,0-.5.3,26.83,26.83,0,0,0-.76,6.38c0,.51,0,1,0,1.52a.42.42,0,0,0,.42.4h0a.42.42,0,0,0,.39-.44c0-.49,0-1,0-1.48a26.13,26.13,0,0,1,.74-6.18A.41.41,0,0,0,122.13,83.73Z"/></svg>